<?xml version="1.0" encoding="UTF-8"?>
<svg width="439px" height="62px" viewBox="0 0 439 62" version="1.1" xmlns="http://www.w3.org/2000/svg" xmlns:xlink="http://www.w3.org/1999/xlink">
    <!-- Generator: Sketch 64 (93537) - https://sketch.com -->
    <title>Fill 29</title>
    <desc>Created with Sketch.</desc>
    <g id="Page-1" stroke="none" stroke-width="1" fill="none" fill-rule="evenodd">
        <g id="EVENTS" transform="translate(-133.000000, -208.000000)" fill="#F0B300">
            <g id="Group-2-Copy" transform="translate(352.500000, 239.500000) rotate(-360.000000) translate(-352.500000, -239.500000) translate(133.000000, 181.000000)">
                <path d="M348.788545,80.5384475 C348.753721,80.5454475 348.724172,80.5534475 348.691459,80.5604475 C348.845531,80.4284475 348.91518,80.3814475 348.788545,80.5384475 L348.788545,80.5384475 Z M344.351706,80.519 C344.360148,80.506 344.362258,80.496 344.372811,80.481 L344.75166,80.507 C344.609196,80.508 344.475174,80.512 344.351706,80.519 L344.351706,80.519 Z M308.54313,81.4780678 C308.63494,81.4880678 308.718308,81.5050678 308.80062,81.5210678 C308.638106,81.5260678 308.565291,81.5090678 308.54313,81.4780678 L308.54313,81.4780678 Z M264.877404,85.5795 C265.236183,85.5265 265.593048,85.4735 265.932692,85.4205 C265.616967,85.4845 265.275409,85.5425 264.877404,85.5795 L264.877404,85.5795 Z M255.138584,85.3721068 C251.428975,84.4673482 256.025176,84.4441987 253.587047,83.1651902 L250.945243,84.1123896 L252.191264,84.2435699 C251.788404,85.5302949 248.102757,84.1162478 248.435229,85.6865538 C245.751491,84.4789229 244.954756,85.2158478 242.002943,84.0853818 C241.303554,84.6236071 242.387832,84.6390401 243.22051,84.7258506 C241.724386,84.6679769 241.642017,86.1939131 239.683127,85.2717924 C238.688706,85.0653763 239.374617,86.363676 241.131327,86.3463138 C239.630711,86.2884402 238.194491,86.5450135 236.533629,86.3694633 L238.230434,87.3706781 L236.478217,87.3899693 L237.953374,87.9532732 C234.603194,88.1133904 230.763292,87.9089034 228.997596,86.5970998 C231.892499,85.5727356 236.719334,85.9817096 238.395173,84.3168766 C237.752693,83.8384541 236.076854,85.5052163 235.232195,84.0853818 L234.350096,85.0152191 C233.328718,85.3161622 230.971462,85.6826956 230.766287,84.7412836 C232.948322,84.2088457 233.872355,83.5895973 234.848804,82.9607032 L234.890738,83.7497145 C235.50027,81.5389396 238.164539,84.3978997 238.15106,82.0115747 C238.231932,82.0077165 238.309808,82.0038582 238.389182,82 C238.786052,82.2951558 239.323698,82.3240926 239.874823,82.2874393 C239.837382,82.4899972 239.617232,82.6964134 239.560322,82.8025151 C240.524791,83.1401116 241.402397,83.115033 242.250051,82.9491285 C242.277008,83.1864106 242.256041,83.4892829 242.169179,83.8828239 C244.959249,84.0487285 246.906157,82.7484997 249.395204,82.314447 C250.160489,82.6848386 251.351098,82.8700344 250.744561,83.1709776 C251.980099,83.2982997 252.881668,82.9934983 253.699369,82.6076737 C254.666833,84.0583741 256.528377,84.4769938 258.545673,84.6043159 C257.771403,85.0364394 256.943218,85.4550591 255.138584,85.3721068 L255.138584,85.3721068 Z M181.819109,86.979859 L177.95324,86.4420947 C178.609429,86.3635448 178.691081,86.1137966 179.004329,85.9345418 C176.339493,86.734139 175.371541,85.7230614 173.368831,87 C172.098023,86.4843907 175.343334,86.1500504 173.953759,85.9647533 C174.716837,85.8298087 175.451709,85.2537764 176.042575,84.6354481 C175.987645,84.8509567 175.9342,85.0503525 175.883724,85.2094663 L176.146496,84.5287009 C176.424114,84.2265861 176.67501,83.9204431 176.854645,83.6485398 C176.642349,83.6163142 176.455291,83.6002014 176.283078,83.5901309 C176.434506,82.8912387 176.591873,82.1258812 176.753693,81.4128902 L177.766182,81.0946626 C177.470749,81.1591138 177.135232,81.1893253 176.804169,81.1893253 C176.936297,80.6173212 177.071395,80.101712 177.206492,79.7210473 C178.566376,79.7129909 179.697632,79.9224572 181.148075,79 C181.134714,80.9194361 181.866616,81.2134945 181.148075,82.3111782 C181.00407,82.2910373 180.935779,82.2567976 180.895695,82.2124874 C180.092533,83.2517623 178.377833,84.3796576 177.047641,84.6314199 C181.743395,85.2618328 180.533455,84.591138 184.653188,85.0503525 C185.013943,86.1601208 180.863034,86.2346425 181.819109,86.979859 L181.819109,86.979859 Z M170.956731,85.7567153 C172.0858,85.2056792 171.586337,85.3944743 173.925375,85 C174.34394,85.3914045 174.053758,85.4742901 173.45405,85.8257866 C173.556053,85.8457406 173.621124,85.8503454 173.710817,85.8649271 C173.403048,85.9217191 173.012622,85.9693016 172.472709,86 L170.956731,85.7567153 Z M170.361548,86.5345 C170.384764,86.5095 170.40587,86.4875 170.428031,86.4655 C170.464966,86.4865 170.490293,86.5085 170.496625,86.5295 C170.444916,86.5365 170.410091,86.5295 170.361548,86.5345 L170.361548,86.5345 Z M161.019346,82.1298701 C159.726809,83.2235622 160.930092,83.2305195 158.1913,84 C157.221071,83.5296846 156.541745,82.8395176 156.396293,82.1799629 C155.416146,82.8506494 152.819501,83.1136364 149.965009,83.0649351 L151.189779,82.703154 C150.674087,82.6669759 150.239384,82.6711503 149.850962,82.6948052 C149.882366,82.6141002 149.91377,82.5264378 149.940216,82.4234694 L151.64101,81.9489796 C153.06743,81.994898 154.503767,82.0589054 155.953326,82.153525 C155.959937,82.2996289 155.95002,82.4165121 156.097125,82.1827458 C156.078943,82.1730056 156.065721,82.1660482 156.050845,82.1576994 C156.166545,82.1660482 156.280593,82.1702226 156.396293,82.1785714 C156.388029,82.1423933 156.378111,82.1062152 156.373153,82.0714286 C157.807837,82.2745826 157.300408,81.7263451 157.594617,81.4897959 C158.6822,81.5983302 159.863996,81.5746753 159.817716,82.1215213 C160.520182,81.7152134 161.93999,81.3589981 162.938318,81 L163.569712,81.7068646 L161.019346,82.1298701 Z M147.740385,84.6365 L147.966862,84.0775 C148.212614,84.1005 148.513299,84.3835 148.795673,84.5865 C148.481496,84.6915 148.235744,84.8225 147.985173,84.9225 C148.046852,84.8205 147.944696,84.7585 147.740385,84.6365 L147.740385,84.6365 Z M101.307692,76.7695 L101.313839,76.7625 C101.435234,76.7285 101.538189,76.6835 101.62885,76.6305 C102.719866,76.4625 103.082513,76.2445 102.816674,76.0455 L103.371402,76.0375 L105.528846,76.9625 L103.778612,76.9495 C102.898116,76.8785 102.042207,76.8075 101.307692,76.7695 L101.307692,76.7695 Z M87.5868511,76.841 C87.5868511,76.841 87.6840934,76.738 87.9538625,76.699 C85.4757513,76.702 84.8609288,76.73 83.3677885,76.789 C83.4148412,76.575 83.5167888,76.379 83.7175472,76.205 L84.8452446,76.19 L85.1573611,76.338 L85.6843518,76.178 L87.036334,76.159 C87.2668924,76.365 87.0269234,76.53 87.0269234,76.617 C87.8252516,76.458 88.7380749,76.425 89.6995192,76.45 C89.0125492,76.569 88.3083265,76.698 87.5868511,76.841 L87.5868511,76.841 Z M39.1340292,68.7283624 C39.1315242,68.7113624 39.1315242,68.6983624 39.1281842,68.6823624 L39.0872691,68.7433624 C39.0789191,68.7453624 39.0688991,68.7483624 39.0613841,68.7513624 C39.028819,68.6403624 39.049694,68.5573624 39.0981241,68.4903624 C39.0864341,68.3363624 39.1323592,68.2143624 39.4028999,68.2573624 L39.3502947,68.3333624 C39.447155,68.3083624 39.5623853,68.2983624 39.6826255,68.2943624 C39.7410757,68.3463624 39.854636,68.4003624 40.1009615,68.4543624 C39.877181,68.5743624 39.4120849,68.6463624 39.1340292,68.7283624 L39.1340292,68.7283624 Z M36.4046266,58.7845 C36.2136194,58.5505 35.8411026,58.2365 36.1745737,58.2155 L36.7739776,58.4825 C36.6747804,58.6045 36.5576434,58.7105 36.4046266,58.7845 L36.4046266,58.7845 Z M144.574519,29.3347608 C141.858423,29.5067608 142.568835,30.0427608 140.175365,29.9727608 C140.041865,29.4527608 138.234842,29.9487608 136.744088,29.9817608 L137.796198,29.6197608 L136.132212,29.4287608 C137.886788,28.8307608 143.549427,28.9637608 144.574519,29.3347608 L144.574519,29.3347608 Z M143.519231,33.8555 C142.513865,33.5385 140.595068,33.8555 140.353365,33.1855 C141.293487,33.1605 142.221745,33.1485 143.141106,33.1445 C143.086241,33.1545 143.02841,33.1655 142.989857,33.1705 C143.166315,33.2085 143.434709,33.3565 143.519231,33.8555 L143.519231,33.8555 Z M163.569712,30.1278463 C163.50387,30.3278463 163.211243,30.5118463 163.268305,30.6318463 C161.929534,30.7898463 160.599541,30.9298463 159.348558,30.8878463 C160.653677,30.5918463 161.535949,29.9778463 163.569712,30.1278463 L163.569712,30.1278463 Z M172.962434,30.429 C171.810575,30.51 170.623758,30.59 169.339059,30.666 C169.180001,30.597 169.010455,30.547 168.846154,30.489 C170.337104,30.397 171.95565,30.377 173.067308,30.334 L172.962434,30.429 Z M177.288462,30.348527 C175.935857,30.453527 174.531865,30.554527 173.067308,30.653527 C175.678917,30.369527 176.449737,30.336527 177.288462,30.348527 L177.288462,30.348527 Z M200.206568,30.1788542 C201.007961,30.2838542 201.39489,30.3648542 201.560096,30.4358542 C200.006582,30.7158542 198.393651,30.9518542 196.283654,30.7528542 C197.283584,30.4868542 197.984984,30.1238542 200.206568,30.1788542 L200.206568,30.1788542 Z M207.379405,30 C208.997734,30.3733075 209.917673,30.377176 211.057692,30.4574468 C210.897767,30.5473888 210.812669,30.7088975 210.853751,31 C209.810567,30.3085106 206.983259,31.2717602 206.836538,30.3762089 C207.231217,30.3297872 207.473306,30.229207 207.379405,30 L207.379405,30 Z M219.744935,29.1931528 L217.89959,28.4596414 L219.806827,28.4469216 L218.202533,28.0342331 C221.84599,27.9169278 226.022041,28.0667393 227.942308,29.0277948 C224.793982,29.778266 219.544602,29.4786428 217.722059,30.6969219 C218.420782,31.0474245 220.243325,29.8277321 221.160297,30.8679332 L222.119616,30.1867145 C223.230406,29.9648238 225.795648,29.6977069 226.018784,30.3874055 C225.259798,30.5117774 224.640882,30.6432159 224.116433,30.7788943 L224.197869,30.4806844 L223.841178,30.85804 C222.544713,31.2198491 221.813416,31.6113379 220.83781,32 C220.730314,31.946294 220.673308,31.830402 220.700997,31.5887248 L221.22056,31.2834484 L214.298479,30.9173993 L214.223558,29.9563439 C214.712175,29.7697861 215.264313,29.6637873 216.319727,29.9987434 C217.4012,30.148555 216.656873,29.1973928 214.746378,29.2115259 C216.378361,29.2525121 217.940308,29.0659543 219.744935,29.1931528 L219.744935,29.1931528 Z M228.71972,33.3314767 C228.738716,33.4624767 228.66379,33.5814767 228.389415,33.6624767 C228.3166,33.6744767 228.26278,33.6674767 228.217403,33.6514767 C228.234288,33.6334767 228.234288,33.6214767 228.255393,33.6024767 C228.145643,33.4504767 228.357756,33.3494767 228.71972,33.3314767 L228.71972,33.3314767 Z M244.214856,30.527 C244.294002,30.492 244.353099,30.445 244.392144,30.387 L244.45124,30.58 C244.350988,30.591 244.253901,30.601 244.147317,30.613 C244.170534,30.585 244.187418,30.556 244.214856,30.527 L244.214856,30.527 Z M274.375,29.1795 C274.323171,29.3745 274.269642,29.5955 274.215264,29.8205 C273.97481,29.8075 273.691873,29.7865 273.332467,29.7515 C273.222011,29.4575 273.85076,29.3105 274.375,29.1795 L274.375,29.1795 Z M275.138501,29.4479672 C275.025585,29.5099672 274.881011,29.5539672 274.666787,29.5519672 C274.84091,29.5169672 275.00448,29.4829672 275.138501,29.4479672 L275.138501,29.4479672 Z M278.596154,29.183 C278.566709,29.201 278.531375,29.22 278.503893,29.236 C278.022957,29.291 277.869843,29.382 277.540059,29.452 C277.783471,29.425 277.993512,29.411 278.217294,29.391 C277.761878,29.618 277.532207,29.592 275.671281,29.956 L275.639873,29.956 C275.243346,29.521 275.447498,29.368 275.934323,29.044 L278.596154,29.183 Z M299.053571,30.2185 C299.283422,30.2805 299.500262,30.3465 299.701923,30.4165 L297.403418,30.7685 C297.095505,30.7555 296.811445,30.7655 296.536058,30.7815 C296.811445,30.6225 297.338366,30.4835 299.053571,30.2185 L299.053571,30.2185 Z M308.768434,30.3935 C308.714614,30.4725 308.77371,30.5285 308.906677,30.6065 C308.748383,30.5815 308.593256,30.5525 308.437073,30.5245 C308.548934,30.4785 308.658684,30.4325 308.768434,30.3935 L308.768434,30.3935 Z M348.221813,33.0589888 C347.997036,33.4812734 347.966433,33.5617978 347.816582,33.6638577 C347.658289,33.6423221 347.479945,33.6273408 347.25939,33.6348315 L347.308988,33.9784644 C347.296325,33.9868914 347.288938,33.9906367 347.275219,34 C347.144363,33.5262172 347.234063,33.4222846 347.420849,33 L348.221813,33.0589888 Z M350.355769,33.1999904 L350.318136,33.7269904 C349.865516,33.9229904 349.600047,33.8939904 349.304065,33.8349904 C349.291859,33.6019904 349.310168,33.3599904 349.369161,33.1209904 L350.355769,33.1999904 Z M362.611362,34.404 L362.565984,34.596 C362.505833,34.587 362.440405,34.53 362.371811,34.453 C362.453069,34.437 362.53327,34.42 362.611362,34.404 L362.611362,34.404 Z M417.795034,47.4354716 C417.6188,47.6324716 417.310656,47.5964716 416.938139,47.4304716 C417.245228,47.4494716 417.520659,47.4504716 417.795034,47.4354716 L417.795034,47.4354716 Z M123.301259,77.8835 L123.421702,77.7845 L119.247596,77.8945 L120.120809,77.1055 L123.46875,77.7045 L123.46875,77.8465 C123.41041,77.8595 123.359598,77.8705 123.301259,77.8835 L123.301259,77.8835 Z M44.0071118,70.5445 C43.854095,70.5255 43.7137416,70.4945 43.5818305,70.4555 C43.7169075,70.4785 43.8604267,70.5105 44.0071118,70.5445 L44.0071118,70.5445 Z M405.774243,43.5415 L405.677156,43.4585 C405.733087,43.4615 405.787962,43.4625 405.839671,43.4635 C405.83756,43.5045 405.821731,43.5355 405.774243,43.5415 L405.774243,43.5415 Z M414.992188,47.391 C415.206411,47.422 415.381589,47.445 415.519832,47.46 C415.460736,47.515 415.38581,47.563 415.319327,47.609 C415.211688,47.54 415.101938,47.467 414.992188,47.391 L414.992188,47.391 Z M119.220686,77.542 L118.568518,77.722 C118.595956,77.319 118.315249,77.386 118.219218,77.278 C118.526306,77.331 118.863999,77.424 119.220686,77.542 L119.220686,77.542 Z M419.489018,58.195 C419.580828,58.432 419.809825,58.782 419.623039,58.805 L419.26002,58.496 C419.319116,58.368 419.391931,58.262 419.489018,58.195 L419.489018,58.195 Z M214.465746,30.6 C214.689468,30.558 214.865701,30.479 215.036657,30.4 C214.886806,30.546 214.687357,30.597 214.465746,30.6 L214.465746,30.6 Z M438.265886,69.1551973 C438.265886,69.1551973 436.181003,68.1285768 433.843585,66.8535804 C433.749619,66.7128341 433.664462,66.5787111 433.592518,66.4512114 C435.126816,66.9661775 433.997749,66.2193939 433.695294,65.5818957 L433.592518,66.0538099 C432.674876,65.5918307 432.674876,64.3946588 432.215321,64.0634909 C432.215321,64.1595295 432.228535,64.2754383 432.241749,64.3946588 L432.300478,64.2340423 C432.344525,64.4459898 432.318097,64.5917037 432.269645,64.7125799 C432.281391,64.9675792 432.237344,65.1679358 431.987746,65.0967347 L432.036197,64.9725467 C431.651522,65.1464099 430.989351,64.9576442 430.701579,64.8731964 L430.695706,63.8747252 C430.358013,64.8168978 429.231883,64.1115102 428.070515,63.154435 C430.84106,63.6346284 428.742963,62.8994357 428.174759,62.2702167 L427.980953,62.7421309 C427.685839,62.6643065 427.455328,62.5599886 427.246839,62.4473915 C426.892997,62.1360937 426.556773,61.8380426 426.252849,61.5830433 C425.973886,61.2286936 425.75512,60.9008374 425.360167,60.7518118 C425.360167,60.8147337 425.379254,60.8925582 425.393936,60.967071 C425.321993,60.93561 425.257391,60.9124283 425.204535,60.9091166 C424.413161,59.82123 423.455876,60.8362597 422.472164,60.7319418 L422.470696,60.5630461 C422.432522,60.6193447 422.370856,60.6508056 422.320936,60.6955133 C422.215224,60.6723316 422.108043,60.647494 422.002331,60.5895396 C420.269823,60.2848651 420.980445,59.2516213 420.283037,58.4104548 C420.475375,58.4667533 420.701482,58.5892855 420.984849,58.8244147 C420.294783,56.9301343 421.893682,57.6885088 421.667575,56.7231543 C421.760074,56.9582835 421.97003,57.3076657 422.138876,57.6322102 C423.226833,57.4119836 425.277946,56.8821149 425.785953,55.9084813 C425.785953,55.9084813 424.580538,54.7791988 423.281157,53.4197545 C424.074,53.1895928 424.731766,52.919691 425.051839,52.5968023 C425.051839,52.5968023 422.966957,51.5701818 420.629538,50.2951854 C420.535572,50.154439 420.450415,50.020316 420.378472,49.8928164 C421.912769,50.4077825 420.783702,49.6609988 420.481247,49.0235006 L420.378472,49.4954149 C419.460829,49.0334357 419.460829,47.8362637 419.001274,47.5050958 C419.001274,47.6011345 419.014488,47.7170433 419.027702,47.8362637 L419.086431,47.6756473 C419.130478,47.8875947 419.10405,48.0333086 419.055599,48.1541849 C419.067344,48.4091842 419.023298,48.6095408 418.773699,48.5383397 L418.822151,48.4141517 C418.437475,48.5880148 417.775304,48.3992491 417.487532,48.3148013 L417.483127,47.5216542 C417.766495,47.4968166 418.051331,47.4554206 418.352318,47.3775962 C417.380351,47.1971097 418.629813,46.874221 417.092579,46.5579556 C417.682806,46.2599045 419.243532,46.1439957 419.181866,45.8757497 C418.681201,46.0015935 418.336167,46.2334111 417.461104,45.8906523 C419.114328,45.6041921 420.836559,45.5859778 422.530893,46.0082169 C422.469227,46.1340607 422.301849,46.2565928 422.108043,46.3725016 C424.310385,45.4369523 427.616833,45.6803607 429.092401,44.59413 L428.440508,44.377215 C427.90901,44.6769219 426.829863,44.7100387 426.40114,44.4318577 C428.054365,44.1470533 425.228027,43.4449773 426.975217,42.9929332 C429.381642,42.5127397 431.517913,43.6767949 432.830508,42.4812788 C430.544478,42.3604025 427.458264,41.7195926 426.530344,42.2494612 L428.005913,42.2974806 L424.636331,43.7430285 C424.507127,43.2048806 421.664639,44.0824756 421.720431,43.2098481 C422.880331,43.0541992 423.938923,43.0641343 424.846288,42.9747189 C424.630458,42.6004992 421.742455,42.7727065 420.522358,42.6601094 L422.059592,42.9763748 C419.314007,43.6883858 415.80788,43.4516007 413.145983,43.9947161 C415.239676,43.3091985 410.485555,43.396958 412.163739,42.675012 C412.846465,42.2130328 413.950572,42.9266996 413.633435,42.726343 C413.843391,41.9514101 412.006639,42.5706941 411.467799,41.9961178 C411.1859,42.499493 408.466742,42.7727065 410.070047,43.3588737 C409.531207,43.1469262 408.600351,43.3588737 407.684177,43.4317306 C407.484498,43.1022186 407.478625,42.6998496 407.331803,42.2974806 C410.133181,41.467905 412.927217,40.6151476 414.361676,40.2442396 L413.668672,40.7062188 C415.791729,39.5835596 417.932405,40.7492706 420.115659,39.899825 C420.024629,40.0670648 419.776498,40.1316425 420.183197,40.1664151 C422.880331,40.3303432 423.952137,38.7606074 426.117773,39.4891768 L425.847619,39.9875845 C426.031147,39.9279742 427.311441,39.517326 427.057438,38.960964 C425.241241,39.1447622 424.897676,39.3749238 423.273816,39.2242425 C423.938923,38.7705424 425.386595,38.3913552 426.45106,38.3880435 L426.568518,37.5104486 C427.936906,36.5831784 429.328786,37.9426227 430.691301,37.0170084 L429.092401,36.4275295 C429.137916,36.3894452 429.264184,36.3679193 429.365492,36.3381142 C428.641656,36.4275295 428.017659,36.5434383 427.847344,36.7520741 C425.439452,37.2289558 424.203204,35.9738295 423.815592,35.5002594 C422.687993,35.2171109 424.220823,34.3941586 424.084278,33.8543549 C422.273953,34.0381531 422.378197,35.0134426 420.563468,35.1955849 C420.086294,35.0796762 420.252204,34.9025013 420.466565,34.8064627 L419.253809,35.2518835 C419.186271,34.9803258 416.08097,34.7816251 417.919191,34.1606852 C418.193749,34.1871787 418.701756,34.1606852 419.095241,34.1987696 C416.562548,33.5662389 412.184294,32.8707863 412.322308,31.8872176 C410.940706,31.6686468 411.325381,32.1471844 409.125977,31.8541008 C408.105559,32.5495534 409.206729,33.2665319 406.804709,33.7450695 L408.698722,34.0927958 C409.089271,33.9586728 409.413749,33.7864655 409.839535,33.6755243 L407.866237,33.7583162 C409.112763,33.4337717 408.89106,33.0612078 409.258117,32.3922487 C412.292943,32.3243592 413.126896,33.5397454 414.665599,33.8609783 C413.722997,34.3891911 412.097669,34.2368539 412.704047,35.0829879 C411.1859,34.3295809 411.021458,35.8082456 409.258117,35.1144488 L409.597278,34.885943 C408.167224,35.5416554 407.970482,34.7336057 406.788559,35.3263963 C406.87812,35.1591565 406.719552,35.0564944 406.568324,34.9538324 C403.998926,35.3313638 407.346485,35.4671426 404.769746,36.2834715 C402.483716,36.1559718 404.026823,34.8942221 403.396953,34.4852298 C407.233431,33.3476681 403.319137,33.0711429 407.469816,32.1405611 C407.453666,30.9980318 405.825401,30.8456946 403.60691,30.9914084 C405.053114,31.4765694 402.686331,32.6638063 404.608241,33.4569535 C401.291515,34.0282181 401.56901,36.2486989 397.861736,35.2038641 L397.952766,35.0349685 L396.428746,35.8612324 L394.329181,35.400909 C395.63003,34.2020812 397.231866,34.7915601 398.255221,34.0961075 C395.700505,32.893968 394.825441,35.2750652 391.878709,35.1757149 C389.426769,33.8063356 394.878298,34.3958145 394.865084,33.254941 C394.273388,33.554648 392.665679,32.9651691 392.856548,32.6306895 C395.61388,33.0612078 394.534732,31.9103994 397.609201,32.5429301 C396.11014,32.9320523 397.838244,32.9154939 397.557813,33.420525 C397.996813,33.018156 400.874538,32.8442928 402.909502,33.0363702 C403.373462,32.1985154 401.146161,32.3442293 399.861462,31.9633862 C397.428609,32.8790655 394.907662,31.2381285 393.03714,32.2945541 C390.41195,32.4038395 392.840398,31.4881603 392.681829,31.3854982 C390.323856,30.9914084 391.658475,32.0809508 390.908211,32.2746841 C387.347759,32.9088706 386.94987,31.2911154 384.411304,31.233161 C382.299993,32.357476 377.158261,31.9683537 373.558167,31.8971526 C373.992763,31.4997512 373.515589,31.191765 373.298291,30.8175453 C371.154679,32.3806578 371.925498,31.7448154 369.245983,32.7283841 L371.512926,33.2880578 C369.695261,33.471856 368.232906,34.5663659 366.565,33.7069852 C368.121321,34.7170473 366.040843,34.8246769 364.201154,34.9703908 C363.672592,34.720359 363.180736,34.4090612 362.727054,34.049744 C364.136552,33.6357841 365.397759,33.2234801 367.337288,33.0777662 C365.021893,32.4667614 363.591839,33.0761104 362.167659,33.5314662 C362.032582,33.3956874 361.872545,33.2897137 361.749214,33.1406881 L361.642033,33.6904268 C361.36307,33.7665954 361.079702,33.8295173 360.787525,33.8709133 C360.546736,33.5099403 360.322097,33.3013045 360.178211,33.8974068 C359.652585,33.9106535 359.097595,33.8659458 358.45598,33.6606217 L359.724528,34.7038006 L359.124023,35.1310072 C358.912599,35.0896112 358.730538,35.1674357 358.552883,35.2502276 C358.172612,35.22539 357.83492,35.132663 357.561829,34.8942221 L357.814365,34.8296444 L357.284334,34.7981835 C357.27993,34.6061061 357.288739,34.4305871 357.216796,34.7286382 C357.235883,34.7567875 357.252033,34.7750017 357.268184,34.7981835 L355.117231,34.669028 L355.444645,33.2946812 C353.591742,32.7697801 351.313054,33.7881214 351.951732,34.1987696 C350.006331,33.8444199 351.153017,33.6854593 350.871117,33.0446494 C351.967883,32.6174428 354.328793,31.4335176 355.004177,32.5495534 C354.845609,32.4468914 354.435973,32.4088071 354.342007,32.5760468 C359.405923,33.2019542 355.993763,30.9086165 358.520582,30.5575785 C357.203582,30.459884 356.221338,29.7958923 354.813308,30.160177 C354.161415,30.1899821 351.503923,30.7330975 350.163431,31.223226 C352.004589,30.6022862 352.950127,31.2166026 354.394863,31.7034194 C353.170361,31.5891665 352.970682,32.3607877 351.9209,31.9120552 L352.262997,31.6802377 L350.925441,32.172022 C350.809452,31.7050753 349.615783,31.6636793 349.006468,31.5295563 C349.022619,31.4881603 349.028492,31.4434526 349.04611,31.4020566 C349.024087,31.450076 349.012341,31.4798811 348.993254,31.5262446 C348.555722,31.4268942 348.436796,31.2795245 349.288368,30.8788113 C347.671849,31.0410836 348.423582,31.4931278 347.453084,31.7911789 C346.664645,31.2348168 346.940672,32.7018906 346.203622,32.6555271 C346.16398,32.925429 346.12287,33.2267918 346.083227,33.5347779 L345.205227,33.2234801 C345.493,33.86429 343.704699,33.6109465 343.205502,33.740102 C341.917866,33.3576031 342.751819,31.8541008 340.565629,32.7052023 L340.722729,32.8078644 C339.471799,33.1324089 338.730344,33.3261421 336.939107,33.0711429 C337.03601,32.9055589 337.529334,32.7747476 337.774528,32.7118257 C335.666154,32.2928983 332.506528,33.2499735 330.867987,32.7217607 C330.919375,32.5363067 331.016278,32.3558202 331.229171,32.1918921 L330.760806,32.6952673 C330.496525,32.5959169 330.267482,32.4634498 330.105977,32.2614373 C330.308592,31.4931278 331.352502,31.9402045 331.406826,31.0659212 C335.268264,32.213418 334.112769,29.6485226 338.662806,30.3307285 C338.872763,32.2862749 342.499284,29.1931667 343.365538,31.1205639 C341.578706,30.8672205 339.208987,32.0511457 339.524656,32.2581257 C341.16907,32.1488402 343.472719,32.1074443 344.619405,32.3094567 C343.610732,31.6703026 343.933742,30.594007 344.666388,29.9250478 C342.008896,30.4665073 337.178428,29.1434915 333.416829,28.9696284 L333.838211,30.1469303 C330.589023,30.9914084 334.233164,29.045797 331.697535,28.9828751 L330.577278,29.8472233 L330.417241,29.7445613 L328.555528,30.8009869 C329.87106,30.748 329.266151,29.901866 330.712355,30.387027 C331.998522,30.7695259 330.65803,31.2596544 330.289505,31.9302694 C329.411505,31.5825431 326.281244,31.8226399 328.213431,31.0344603 L324.782184,32.2084505 C324.805676,31.7713088 325.55594,31.5759198 325.90391,31.3474139 L323.42701,31.5543939 L323.516572,31.3888099 C321.776722,31.8391983 319.437836,31.9021202 317.855087,32.4584822 C317.485094,32.3790019 317.094545,32.2928983 316.677569,32.2001713 L317.267796,32.8658188 C316.411819,33.1141947 315.560247,33.3542914 314.95387,33.2234801 C314.993512,32.574391 315.52501,31.8143607 316.878716,31.3888099 C317.576124,32.06936 319.354147,31.1801741 320.665274,31.1271873 C318.973876,30.7049482 318.448251,31.2695895 317.125378,31.3242322 C318.060639,30.7976752 315.36791,30.6354029 315.395806,30.1982613 C315.571993,29.8621259 316.125515,28.860343 317.824254,29.2809262 C320.359883,29.3388806 318.088535,30.3572219 318.837331,30.1634887 C319.509779,31.2811803 322.374291,29.9664438 323.911525,30.284365 C324.07303,30.387027 323.569428,30.5161825 323.319829,30.5807602 C324.642702,30.5261175 327.424993,30.5228059 327.629077,29.7495288 L324.321161,30.3224493 C323.601729,30.0806967 325.343047,29.6253408 324.309415,29.1782642 C323.556214,29.3703416 322.654722,29.4630686 321.676883,29.2875496 L321.860411,28.95307 C319.854813,28.3271627 316.720147,28.5639477 314.410625,28.8769014 C314.002458,30.2297223 313.162632,31.1718949 312.327211,32.4088071 C311.505003,32.3260151 310.688669,32.2183855 309.888485,32.0809508 C311.52409,31.8325749 312.347766,30.9417333 311.459488,30.3572219 L310.857515,30.655273 L309.600712,29.8339766 C309.26302,30.9582916 307.307341,30.8374154 305.472057,30.9185515 C305.149047,30.7960194 304.843656,30.6585847 304.544137,30.5194942 C305.511699,29.8902752 306.493943,29.3289456 307.784515,30.0210865 L307.590709,29.2097251 C309.151435,29.0921605 310.415579,29.9118011 311.281833,29.1136864 L309.464167,29.2974846 L309.495,28.860343 C308.207365,28.9133299 306.565886,29.5988474 305.37809,29.1136864 C304.842187,29.3902116 304.320967,29.747873 303.567766,30.0061839 C303.463522,29.9449179 303.347532,29.891931 303.247692,29.8290091 L303.134639,30.1336836 C302.592863,30.2727741 301.924819,30.3505985 301.089398,30.3307285 C300.916147,30.2330339 300.753174,30.1850146 300.606351,30.2247547 L300.650398,30.1469303 C298.756385,31.6404975 295.373589,29.2229718 293.942067,29.8786843 C293.115455,31.3838424 297.015067,30.5145267 297.960605,31.130499 C296.781619,31.7232895 295.520411,30.9036489 296.53202,31.7878672 C296.081274,31.903776 295.742114,31.9435162 295.466087,31.9385486 C295.322201,31.8789384 295.17391,31.801114 295.015341,31.6951402 L295.015341,31.6951402 C295.012405,31.6901727 295.008,31.6901727 295.008,31.6901727 C294.925779,31.6338742 294.839154,31.5759198 294.755465,31.5063745 C294.755465,31.5543939 294.762806,31.5957899 294.768679,31.63553 C294.639475,31.6024132 294.530826,31.5808873 294.425114,31.5593614 C294.059525,31.264622 293.783498,30.9897526 292.616258,31.5163096 L293.438465,31.759718 C293.403227,31.8839059 293.404696,32.0296198 293.356244,32.1488402 C293.099304,32.2332881 292.826214,32.2895866 292.541378,32.3260151 C292.329953,32.2912424 292.07595,32.2349439 291.74413,32.1372494 C291.268425,31.5957899 290.998271,32.0528016 290.675261,32.6224103 C290.490264,32.6836764 290.312609,32.7581892 290.155508,32.8658188 C290.127612,33.059552 290.190746,33.1638699 290.293522,33.235071 C290.020431,33.605979 289.676866,33.8825042 289.174732,33.7632838 L287.681545,31.5245888 C284.987348,30.2413131 284.526324,32.4849757 280.623776,32.4932549 C279.751649,32.120691 279.102692,31.5047187 278.769405,30.7877402 C278.983766,30.7248183 279.196659,30.6701756 279.397806,30.6387146 C279.134993,30.6105654 278.895672,30.5857278 278.669565,30.562546 C278.53302,30.1833588 278.481632,29.7793339 278.541829,29.3670299 C280.400605,29.1252773 281.354953,29.5839449 283.037542,28.6931032 C284.292876,29.1153423 281.083331,29.3918675 282.45906,29.5442047 C281.293288,29.7147562 280.149538,30.7397208 279.590144,31.4484201 C282.601478,31.8127048 281.300629,30.2893325 283.864154,29.9118011 L285.778722,30.7049482 C286.937154,30.5492993 285.401388,30.2280664 285.332381,29.9631321 C286.74188,29.7379379 287.276314,30.3174818 288.342247,30.3290726 C288.029515,30.1220927 287.310084,29.8786843 287.489207,29.5442047 C289.256953,30.2363456 290.998271,29.7859573 292.638281,31.0758563 C291.691274,30.4615398 293.718896,29.5077762 294.472097,29.3123872 L291.101047,28.0357349 C286.818227,28.4298247 284.150458,27.8320667 279.52701,28.4563182 L279.8001,27.9545988 C272.517692,26.4014213 273.755408,30.3804037 267.525719,30.418488 C267.355405,29.1732967 264.645057,30.5906953 264.879973,29.3835883 C266.760773,29.4663803 266.379033,28.9961218 265.84313,28.4182338 C264.752237,28.8437846 264.041615,29.7445613 261.936177,29.2875496 C262.71287,28.6566747 260.861435,28.1317736 262.924294,27.8867094 C260.072997,27.621775 258.506398,27.7376838 257.049916,28.8305379 C252.395635,29.8968985 255.656569,27.4760612 251.03312,28.1019685 L251.711441,27.6333659 L248.833716,27.8072291 L249.780722,28.4248572 L246.375903,29.1617058 C244.283679,29.8455675 247.228943,29.943262 246.957321,30.4466372 L247.66207,29.5442047 C249.037799,29.7594638 250.978796,28.9745959 251.266569,29.61375 C249.018712,29.7495288 249.556084,30.459884 248.663401,30.8192011 L250.805545,30.4516048 L251.502953,31.130499 C253.630415,31.150369 255.267488,31.3027063 256.536037,30.5410201 C255.656569,30.1982613 255.101579,31.2000442 254.316077,30.6883898 C255.361455,29.5557956 257.996923,29.4498219 260.557512,29.0706346 C260.62505,29.3388806 261.438448,29.4167051 261.093415,29.6468668 C261.040559,29.7495288 260.592749,29.7395938 260.343151,29.6948861 C260.536957,30.1982613 259.106903,30.5228059 261.516264,30.8274803 C260.773341,31.5129979 259.344756,32.584326 258.996786,33.0463053 C256.420047,31.7828997 254.169254,32.6853322 251.524977,33.327798 C250.977328,33.3476681 250.564756,33.2714994 250.488408,32.9684808 C249.814492,33.1456556 248.07611,33.3642264 249.293271,33.7417579 C249.027522,33.771563 248.758836,33.7947447 248.482809,33.8063356 L249.024585,32.6472479 C247.618023,31.4964395 248.638441,34.4322429 246.961726,33.8560108 L246.878037,32.4319888 C246.51098,32.8972797 246.208525,33.1059155 245.945712,33.1473115 C245.414214,32.5760468 244.843074,32.181957 247.058629,31.4202709 C246.957321,31.4467643 245.991227,31.5792315 244.417288,31.7845556 C244.333599,31.6818935 244.246973,31.584199 244.155943,31.4980953 C244.480421,31.5163096 244.687441,31.4964395 244.746171,31.7365362 C245.95599,30.7049482 244.17503,30.4482931 242.28689,30.3638453 L241.83908,31.1785183 C241.589482,31.1073172 241.357502,31.0311486 241.132863,30.9533241 C241.187187,30.4151763 241.394207,29.8737168 241.523411,29.4647244 L240.341488,30.6751431 C240.237244,30.6387146 240.130064,30.603942 240.024351,30.5708252 L239.805585,29.2875496 C239.040639,30.6850781 238.830682,29.8853076 238.062799,29.7445613 L239.763007,28.72622 L240.382599,27.9910273 L237.136348,28.8305379 C237.569475,28.4331364 236.004344,28.5523568 236.68707,28.0887218 C236.440408,28.1516437 235.280508,28.3106043 235.596177,28.5142725 L236.258348,28.4894349 C234.546395,29.6468668 235.582963,30.0922876 232.74488,30.97485 C233.934144,31.4384851 234.671194,31.2977387 235.312809,30.9996876 L235.273167,31.4169592 L232.678809,32.9701366 C232.225127,32.7797151 231.784659,32.5992286 231.232605,32.8724421 L232.170803,32.1571194 C231.160662,32.4220538 230.592458,32.347541 230.147585,32.1471844 C230.314963,31.7001077 230.24302,31.2000442 229.241689,30.7397208 C230.455913,30.8490062 230.614482,30.9500124 231.455776,30.5906953 L230.232742,30.4764424 C232.047472,30.2943 234.822421,29.1451474 234.782779,28.4397598 C234.227789,29.4431985 233.064953,28.4563182 232.087114,28.2774875 C232.83591,28.0820984 234.427468,27.529048 233.207371,27.4147951 C232.774244,27.8155083 229.458987,28.3851171 231.811087,28.777551 C230.814161,29.0391737 229.475137,29.5293022 228.344602,29.2478094 C229.674816,28.7576809 228.799753,28.4149222 229.171214,27.7443072 C227.989291,28.3354419 228.027465,29.0408295 227.836595,29.3769649 C224.455268,28.5357985 223.083943,26.7392126 219.275361,27.4412885 C218.774696,27.5687882 221.584883,27.1283349 221.222231,27.7956382 C218.43994,28.9447908 217.601582,26.5852195 215.190753,27.065413 L215.867605,28.1814488 C215.118809,28.3735262 213.298207,28.5573244 212.399652,28.6517072 C212.170609,28.2774875 209.596806,27.5124896 211.505502,27.1631075 C207.366569,26.5140184 207.843742,29.5442047 203.101368,29.1931667 C205.2949,29.4845945 205.547435,29.4200167 207.272602,29.4051142 C206.102425,29.799204 206.30504,29.8952427 206.556107,30.108846 C206.068656,30.1436186 205.598823,30.2065405 205.148077,30.3009234 C203.955876,30.2131639 202.939863,30.284365 204.546104,29.6783277 C203.076408,29.6303084 200.132612,29.5326138 199.451355,29.9962489 L200.73899,30.3804037 C199.192946,30.3638453 197.671863,30.7231624 196.617676,31.2248818 C196.529582,31.2050117 196.456171,31.2033559 196.366609,31.1785183 C195.72793,30.335696 194.682552,29.9035219 193.46686,29.6700485 C194.325773,29.6717044 195.328572,29.7313146 196.190421,29.6981978 C194.935087,29.272647 195.66186,28.9149857 196.576565,28.5291751 C196.741007,28.49937 196.851124,28.4430714 196.92894,28.3784937 C197.034652,28.3321302 197.134492,28.2874225 197.238736,28.241059 L197.002351,28.2427149 C197.018502,28.1317736 196.967114,28.0009623 196.795331,27.8188199 C195.140639,28.1036243 193.876495,27.2856396 192.810562,27.2740487 C193.863281,28.8653105 189.182572,27.6416451 187.843548,28.1317736 L186.297505,28.2874225 L185.719023,28.2907342 C185.603033,28.1152152 185.767475,27.8983002 186.648411,27.5820349 C185.912829,27.8966444 183.457953,27.787359 183.68406,28.2973576 L178.081304,28.3205393 C177.908054,28.2559616 177.733334,28.1748254 177.60413,28.0605725 C177.410324,28.1599229 177.376555,28.2427149 177.402983,28.3221952 L152.992234,28.4248572 C154.196181,28.550701 155.238622,28.9133299 156.479274,29.0905047 C154.616094,30.1469303 158.515706,29.2809262 157.969525,30.2793974 C157.131167,30.6420263 155.905197,30.5294292 155.175488,30.2860208 C154.940572,30.7198508 155.677622,31.1139406 155.809763,31.5991015 L154.99196,32.5363067 C152.751445,30.8490062 149.546304,32.2200413 146.348505,31.6901727 C148.44807,31.6404975 150.575532,31.501407 152.842475,31.0377719 C148.884134,30.057515 155.436833,30.2214431 154.193244,28.9679726 L152.039355,29.3835883 L152.222883,29.045797 L149.594756,29.1550824 C150.133595,29.7329704 150.538826,29.7693989 150.421368,30.3737803 C146.913773,30.1386511 149.315793,29.6568018 146.743458,28.8934598 L142.821823,29.0027452 L143.13896,28.8206028 C142.808609,28.8355054 142.663254,28.9100182 142.550201,29.0093685 L129.33909,29.3852441 C126.934134,29.8670934 130.667836,30.4747865 128.894217,31.3639723 C131.347625,31.3623165 134.846411,31.8590683 135.811037,31.1553365 L136.264719,32.347541 L134.178368,32.047834 L134.737763,31.7100428 C125.675863,35.6294149 121.580977,30.0277098 113.07113,33.6076349 C114.200197,31.6802377 111.394415,34.6193528 111.282829,32.5131249 C111.031763,32.203483 110.7851,31.9799446 110.541375,31.8176723 C110.585421,31.8060815 110.641214,31.7961464 110.672047,31.7878672 L110.871726,29.8687493 C109.092234,30.1982613 109.076084,31.0675771 109.926187,31.5444588 C109.607582,31.4666344 109.294849,31.4782253 108.98799,31.5676406 C108.692876,31.3291997 108.735455,30.9781617 107.979318,31.625595 C107.988127,31.7663413 108.093839,31.8507891 108.239194,31.913711 C107.305401,32.4800082 106.418592,33.4420509 105.547933,33.791433 C105.547933,33.8940951 105.52591,34.0149714 105.42607,34.1788995 L102.350134,33.925556 C104.186886,31.2629661 100.134579,36.1344459 101.821572,33.8692575 C93.8021137,31.8772826 83.3365886,33.9073418 74.0515184,32.9883509 L74.4596856,33.6722126 C72.1046488,33.5414013 69.1770033,34.3726327 67.3901706,33.2797786 C65.6018696,32.1869246 63.4817492,35.0167543 62.7887458,35.1260397 C60.8301304,36.3049974 59.0491706,33.9619845 59.8904649,34.0828608 C57.7967726,34.4090612 55.8278796,36.8414894 52.9222575,35.7966547 C51.9282676,33.5397454 44.9952977,38.0121679 44.9086722,35.4687985 L44.8763712,35.6824018 C41.1558829,33.8924392 37.6453512,36.9391839 33.6370903,35.3181171 C33.6370903,35.3181171 33.7134381,35.1310072 33.8485151,34.9587999 L27.0330033,41.4082948 C25.7776689,40.9993024 24.3564247,40.4628104 22.7281605,39.7491436 L22.7281605,39.5504428 C22.2906288,39.5835596 22.2935652,39.9842728 21.4229064,39.4510925 L23.5973512,40.6780695 C22.2935652,41.1814447 21.155689,42.13852 19.4187759,42.2742988 C19.0502508,42.0524163 18.9239833,41.6417681 18.8887458,41.3205353 L14.6279498,41.6566707 L13.3226957,40.3618042 C12.0203779,41.0638801 12.61501,43.7943595 9.13090635,42.272643 C10.4449699,44.1685792 7.40280268,43.4102047 7.83299331,44.3739033 C7.65827425,44.1404299 7.25744816,43.789392 6.93737458,43.4665033 C4.86570569,43.6850741 0.964625418,44.2165986 0,45.1902322 C0,45.1902322 8.10461538,49.1791496 10.2834649,51.2058971 C7.36756522,50.690931 9.51558194,51.4377146 10.0896589,52.0752128 L10.2834649,51.6032986 C12.0321237,52.0652778 12.0321237,53.2624498 12.9042508,53.5936177 C12.9042508,53.497579 12.8778227,53.3800144 12.8543311,53.2624498 L12.7427458,53.4214104 C12.6590569,53.2111187 12.7089766,53.063749 12.8014749,52.9445286 C12.7809197,52.6895293 12.8616722,52.4875169 13.3373779,52.558718 L13.2448796,52.6845618 C13.9760569,52.5106986 15.235796,52.6978085 15.7834448,52.7822563 L15.7951906,53.7823834 C17.088699,51.8798238 24.4988428,56.68507 26.2386923,56.7479919 C27.9844147,58.0080858 30.1515184,56.4366941 32.3318361,57.0675689 C35.6588395,57.3755551 34.2170401,58.428669 35.6177291,59.274803 C35.2183712,59.2400304 34.7235786,59.1075632 34.0907726,58.831038 C35.4048361,60.7269743 32.3626689,59.9685998 32.7928595,60.9322984 C32.6181405,60.698825 32.2173144,60.347787 31.8972408,60.0248983 C29.8255719,60.2434691 25.9244916,60.7749936 24.9598662,61.7486272 C24.9598662,61.7486272 33.0644816,65.7375446 35.2433311,67.7642921 C32.3274314,67.2493261 34.4754482,67.9961097 35.0495251,68.6336079 L35.2433311,68.1616936 C36.7717559,68.5657185 36.9640936,69.5310729 37.5719398,69.9880846 C37.4853144,70.0294806 37.4251171,70.0741883 37.4368629,70.1255193 C37.5234883,70.1039934 37.6042408,70.0774999 37.6864615,70.0526623 C37.7437224,70.087435 37.7980468,70.1271751 37.8641171,70.1520127 C37.8641171,70.1106167 37.850903,70.0576299 37.8435619,70.0112664 C38.1768495,69.9168835 38.5306923,69.8638966 39.1561572,70.1089609 C37.5044013,70.397077 35.7821706,70.4136354 34.0878361,69.9930521 C34.1480334,69.8672083 34.3168796,69.7446762 34.5092174,69.6271116 C32.3083445,70.5626609 29.0004281,70.3209083 27.5248595,71.4071391 L28.1782207,71.624054 C28.7097191,71.3226912 29.7888662,71.2895745 30.2175886,71.5677555 C28.5643645,71.8542157 31.3907023,72.5546358 29.6435117,73.0083359 C27.237087,73.4868735 25.0993478,72.3228183 23.7882207,73.5183344 C26.0742508,73.6408665 29.1589967,74.2816764 30.0883846,73.7518078 L28.6128161,73.7021326 L31.982398,72.2565847 C32.1101338,72.7963884 34.9540903,71.9187935 34.8982977,72.789765 C33.738398,72.945414 32.6783378,72.9371348 31.7709732,73.0265501 C31.9882709,73.4007698 34.874806,73.2285625 36.094903,73.3411596 L34.5591371,73.0248943 C37.3047224,72.3128833 40.8108495,72.5480125 43.4712776,72.0048971 C41.3790535,72.6904147 46.1331739,72.604311 44.4535217,73.3246012 C43.770796,73.7882363 42.6681572,73.0729136 42.9838261,73.274926 C42.7753378,74.0482031 44.6120903,73.4289191 45.1509298,74.0051512 C45.3227124,73.6971651 46.4077324,73.4752826 46.8555418,73.21366 L47.8069532,74.1425859 C45.54001,74.8181684 43.4375084,75.4506991 42.2570535,75.7570294 L42.9485886,75.2933944 C40.827,76.4160536 38.6848562,75.2503425 36.5030702,76.1014441 C36.5926321,75.9342043 36.8422308,75.8696265 36.4340635,75.8331981 C33.738398,75.6709258 32.6651237,77.2390058 30.4994883,76.5120922 L30.7696421,76.0120287 C30.5861137,76.0716389 29.3072876,76.483943 29.561291,77.0386492 C31.3774883,76.8565069 31.7195853,76.6263452 33.3434448,76.7753707 C32.6783378,77.2307266 31.2321338,77.6099138 30.1662007,77.6132255 L30.0502107,78.4908205 C28.6818227,79.4180906 27.2884749,78.0586463 25.9259599,78.9826048 L27.5248595,79.5737395 C27.4808127,79.6118238 27.3545452,79.6333497 27.2532375,79.661499 C27.9756054,79.5737395 28.599602,79.4561749 28.7699164,79.2491949 C31.1778094,78.7706573 32.4140569,80.0274395 32.8031371,80.4993538 C33.9292676,80.7841582 32.3979064,81.6054546 32.5329833,82.1469141 C34.3447759,81.9631159 34.2390635,80.9878264 36.0537926,80.8056841 C36.5309666,80.9215928 36.3665251,81.0987677 36.1521639,81.1948064 L37.3649197,80.7493855 C37.4324582,81.0192874 40.5377592,81.2179881 38.6980702,81.8389279 C38.4235117,81.8140903 37.9169732,81.8389279 37.5234883,81.8008436 C40.0561806,82.4333743 44.4329666,83.1304827 44.2949532,84.1123956 C45.6780234,84.3309664 45.2933478,83.8540846 47.4912843,84.1471682 C48.5131706,83.4500598 47.412,82.7330813 49.8140201,82.2545436 L47.9185385,81.9084732 C47.52799,82.0425962 47.2049799,82.2148035 46.779194,82.3240889 L48.7510234,82.2429528 C47.5044983,82.5674973 47.7276689,82.9384054 47.360612,83.6090204 C44.3243177,83.6769098 43.4918328,82.4615236 41.9531304,82.1402907 C42.8957324,81.6120779 44.5210602,81.7644152 43.913214,80.9166253 C45.4313612,81.6716881 45.5972709,80.1930235 47.360612,80.8868202 L47.0214515,81.1153261 C48.451505,80.4596136 48.6482475,81.2676633 49.8301706,80.6732169 C49.7406087,80.8404567 49.897709,80.9447746 50.0504047,81.0457808 C52.6198027,80.6682494 49.2722441,80.5324706 51.8489833,79.7177975 C54.1350134,79.8436413 52.5919064,81.105391 53.2217759,81.5160392 C49.3852977,82.653601 53.299592,82.9301262 49.148913,83.860708 C49.1635953,85.0032372 50.7933278,85.1539186 53.0118194,85.0098606 C51.5656154,84.5230438 53.932398,83.3374627 52.0104883,82.5443156 C55.327214,81.9730509 55.0482508,79.7525702 58.7569933,80.7974049 L58.6659632,80.9646447 L60.1899833,80.1400366 L62.2895485,80.5987041 C60.9872308,81.7975319 59.3868629,81.2097089 58.3620401,81.9051615 C60.9182241,83.1056452 61.7932876,80.7262038 64.7400201,80.8255542 C67.1919599,82.1932776 61.7404314,81.6037987 61.7521773,82.7446721 C62.3438729,82.446621 63.9515819,83.0360999 63.7621806,83.3705795 C61.0033813,82.9384054 62.0825284,84.0892138 59.0080602,83.4566831 C60.5071204,83.0692167 58.7790167,83.0841192 59.0594482,82.580744 C58.6219164,82.9814572 55.7427224,83.1553203 53.7092274,82.9648988 C53.2437993,83.8010977 55.4725686,83.6570397 56.7572676,84.0378828 C59.1901204,83.1222035 61.7110669,84.7614847 63.5801204,83.7050591 C66.2067793,83.5974295 63.7783311,84.5131087 63.9368997,84.6157708 C66.2948729,85.0098606 64.958786,83.9203182 65.7105184,83.7249291 C69.2695017,83.0923984 69.6688595,84.7084978 72.2059565,84.768108 C74.3187358,83.643793 79.4604682,84.0329153 83.0605619,84.1041164 C82.6244983,84.499862 83.1016722,84.8078482 83.3189699,85.1837237 C85.4640502,83.6206112 84.6917625,84.2564536 87.3727458,83.2728849 L85.1058027,82.7132112 C86.9234682,82.5277572 88.3858227,81.4332473 90.0522609,82.292628 C87.8396421,80.8570151 92.9828428,81.2461374 94.3233344,80.7560089 C96.1791739,81.2759425 98.0423545,80.2211727 99.0568997,81.105391 L98.8043645,81.1699688 L101.50003,81.332241 L101.174084,82.704932 C103.026987,83.231489 105.304207,82.2114918 104.665528,81.8008436 C106.612398,82.1551933 105.464244,82.3141539 105.747612,82.9566196 C104.649378,83.3821704 102.288468,84.5660956 101.614552,83.4517156 C101.77312,83.5543777 102.182756,83.592462 102.276722,83.4252222 C97.212806,82.797659 100.623498,85.0926526 98.0966789,85.4436905 C99.4136789,85.5413851 100.397391,86.2053767 101.803953,85.8394362 C102.457314,85.8112869 105.114806,85.2681715 106.455298,84.7780431 C104.61414,85.397327 103.667134,84.7846664 102.222398,84.2978496 C103.448368,84.4121025 103.648047,83.6388255 104.697829,84.087558 L104.355732,84.3210314 L105.693288,83.829247 C105.892967,84.6389525 109.36092,84.1686941 107.330361,85.1224577 C109.148027,84.9403153 107.954358,84.3889208 109.60905,84.1041164 L106.343712,83.8010977 L106.399505,82.9301262 C107.591706,82.3373356 107.87801,82.9798014 109.193542,82.9235028 L109.081957,81.9482133 L111.412033,82.7777889 C111.124261,82.136979 112.91403,82.3886666 113.413227,82.2595112 C114.699395,82.6436659 113.86691,84.1471682 116.0531,83.2944109 L115.894532,83.1917488 C117.14693,82.8672043 117.886916,82.673471 119.678154,82.9301262 C119.582719,83.0957101 119.089395,83.2248656 118.842732,83.2894433 C121.348997,83.787851 125.369003,82.3141539 126.512753,83.7381758 C126.310137,84.5081412 125.264759,84.0610645 125.211903,84.933692 C121.348997,83.787851 122.504492,86.3510906 117.955923,85.6688847 C117.745967,83.7149941 114.117977,86.8064464 113.253191,84.8790493 C115.038555,85.1340485 117.409742,83.9484675 117.092605,83.7414875 C115.449659,83.8524288 113.14601,83.8938248 111.999324,83.6918123 C113.007997,84.3293105 112.683518,85.4072621 111.950873,86.0762212 C114.608365,85.5331059 119.440301,86.8577775 123.2019,87.0316406 L122.77905,85.8543387 C126.028237,85.0098606 122.385565,86.955472 124.921194,87.0167381 L126.041452,86.1523898 L126.201488,86.2567077 L128.061732,85.2002821 C126.747669,85.2516132 127.352579,86.099403 125.906375,85.614242 C124.620207,85.2317431 125.960699,84.7399587 126.327756,84.0709996 C127.207224,84.4187259 130.336017,84.1769733 128.403829,84.9651529 L131.836545,83.7928185 C131.811585,84.2283043 131.062789,84.4236934 130.713351,84.6538551 L133.191719,84.4468752 L133.100689,84.6124591 C135.09601,84.0958372 137.884174,84.0892138 139.408194,83.2612941 C137.235217,82.7248021 138.506702,82.4698028 139.628428,82.1866542 C140.317027,82.2942838 140.995348,82.4184718 141.651645,82.5674973 C141.73093,83.2546707 141.243478,84.1372332 139.740013,84.6124591 C139.042605,83.9319091 137.264582,84.8210949 135.953455,84.8724259 C137.643385,85.294665 138.170478,84.7316795 139.491883,84.675381 C138.55809,85.2035938 141.250819,85.3642102 141.222923,85.8030077 C141.045268,86.1391431 140.491746,87.140926 138.794475,86.7203428 C136.258846,86.6607326 138.528726,85.6423913 137.77993,85.8377803 C137.107482,84.7200887 134.244438,86.0348252 132.707204,85.7169041 C132.545699,85.614242 133.047833,85.4850865 133.297431,85.4205088 C131.976027,85.4751515 129.192268,85.4784632 128.989652,86.2500844 L132.2961,85.6788197 C133.017,85.9205723 131.275682,86.3759282 132.309314,86.8230048 C133.061047,86.6292716 133.962538,86.5365446 134.941846,86.7120636 L134.758318,87.048199 C136.762448,87.6724505 139.897114,87.4373213 142.206635,87.1227118 C142.638294,85.7003457 143.542722,84.7234003 144.422191,83.3821704 C144.983054,83.5941178 145.502806,83.8325587 145.993194,84.0892138 C144.874405,84.4534985 144.417786,85.1555745 145.157773,85.6423913 L145.759746,85.345996 L147.016548,86.1672924 C147.493722,84.5793423 151.19806,85.4817748 153.230087,84.7780431 C151.833803,85.4784632 150.632793,86.9438811 148.834214,85.9785267 L149.02802,86.7915439 C147.467294,86.9074527 146.203151,86.0894679 145.336896,86.8875826 L147.154562,86.7037844 L147.122261,87.140926 C148.411365,87.0862833 150.051375,86.4007658 151.240639,86.8875826 C152.286017,86.3477789 153.266793,85.4883982 156.060829,85.6837873 L155.968331,85.8543387 C157.860876,84.3591157 161.24514,86.7782972 162.676662,86.1209289 C163.503274,84.6174266 159.603662,85.4867424 158.658124,84.8707701 C159.83711,84.2763237 161.096849,85.0976201 160.085241,84.2134018 C162.838167,83.499735 161.729656,85.5082683 164.002472,84.4849595 L162.714836,84.1041164 C163.735254,83.4086638 165.433993,83.829247 166.463221,83.1354503 C166.52195,82.7065878 166.228304,82.6403543 165.737916,82.6784386 C166.232709,82.4615236 166.803849,82.2412969 167.50713,82.0773688 C168.167833,82.1734075 168.888732,82.2479203 169.70213,82.292628 C169.85189,82.2959396 169.960538,82.2595112 170.057441,82.2131477 C170.107361,82.2446086 170.145535,82.2843488 170.19105,82.3191214 L169.70213,82.292628 C169.891532,82.3191214 170.057441,82.3323681 170.214542,82.3373356 C171.265793,83.1122685 171.763522,84.304473 171.32599,85.4966774 L170.838538,85.294665 C169.881254,85.4254763 170.757786,85.665573 171.130716,85.8957347 C171.102819,85.9470657 171.076391,85.9983968 171.04409,86.048072 C169.831334,86.1639807 169.27194,85.6837873 168.276482,85.6721964 C168.589214,85.8791763 169.308645,86.1209289 169.128054,86.4570643 C167.361776,85.7649234 165.620458,86.2153117 163.980448,84.9254128 C164.925987,85.5397292 162.899833,86.4934928 162.145164,86.6888818 L165.516214,87.9655341 C169.799033,87.5697885 172.466803,88.1692024 177.091719,87.5449509 L176.817161,88.0450144 C184.099569,89.5998477 182.863321,85.6208654 189.091542,85.5827811 C189.263324,86.8279724 191.972204,85.4105737 191.737288,86.6176807 C189.856488,86.5332329 190.238227,87.0051472 190.77413,87.5830352 C191.866492,87.1558286 192.577114,86.2567077 194.681084,86.7120636 C193.90586,87.3445943 195.757294,87.8694954 193.692967,88.1129038 C196.545732,88.379494 198.110863,88.2619294 199.568813,87.1707311 C204.223094,86.1043705 200.962161,88.523552 205.585609,87.8993005 L204.905819,88.3662473 L207.783545,88.1923841 L206.838007,87.5764118 L210.241358,86.8395632 C212.333582,86.1540457 209.389786,86.0563512 209.65994,85.5546318 L208.956659,86.4570643 C207.58093,86.2418052 205.638465,87.0266731 205.352161,86.3875191 C207.598548,86.2500844 207.061177,85.5413851 207.955328,85.1820679 L205.813184,85.5496643 L205.115776,84.8707701 C202.988314,84.8492442 201.351241,84.6985628 200.081224,85.4602489 C200.962161,85.8030077 201.515682,84.8012248 202.302652,85.3128792 C201.257274,86.4454734 198.623274,86.5514472 196.059749,86.9306344 C195.993679,86.6607326 195.180281,86.584564 195.525314,86.3544023 C195.576702,86.2500844 196.02598,86.2600194 196.27411,86.3063829 C196.081773,85.8030077 197.511826,85.4784632 195.102465,85.1737887 C195.967251,84.3756741 197.768766,83.0493466 197.705632,82.7777889 C199.109258,82.5575623 201.082555,82.478082 202.208686,82.7595747 L202.119124,82.9268145 C203.101368,83.0178857 204.952803,82.5161663 205.75005,82.7397046 C205.846953,82.8440225 205.949729,82.941717 206.059846,83.0178857 L206.030482,82.9052886 C206.065719,82.9466846 206.115639,82.9764897 206.130321,83.0327882 C206.876181,82.8373992 208.93904,82.5890232 206.838007,82.1320115 L208.290084,81.9349666 C209.33693,82.7165229 208.745234,84.0610645 208.486826,84.8807051 L209.924221,83.4103196 L210.09013,84.3839533 C209.93303,84.4468752 209.759779,84.5114529 209.5601,84.5809982 C209.601211,84.5694073 209.793548,84.541258 210.109217,84.4965503 L210.204652,85.0562241 C210.377903,84.7399587 210.521789,84.5462255 210.649525,84.4220376 C210.840395,84.3955441 211.057692,84.365739 211.294077,84.3359339 C211.402726,84.3872649 211.515779,84.4534985 211.64792,84.5114529 C211.123763,85.1754445 212.079579,85.4519697 213.387769,85.5711902 C213.39511,85.5745019 213.399515,85.5794694 213.406856,85.5827811 L213.417134,85.5745019 C213.712247,85.6009953 214.017639,85.6225212 214.331839,85.6357679 L214.778181,84.8227507 C216.409381,85.2814183 217.384284,86.0099876 219.554324,85.655638 L224.634391,82.6155167 C225.124779,82.5509389 225.625445,82.4863612 226.12611,82.4250951 C226.186308,82.4681469 226.269997,82.4962962 226.352217,82.5277572 L226.20099,83.2381123 L226.654672,82.6155167 C227.538545,82.8042824 228.855545,82.7231462 228.144923,83.4881441 C228.37103,83.8640196 227.622234,84.056097 226.644395,83.8772664 C226.494635,83.7762602 226.736893,83.7133383 226.582729,83.6090204 C226.305234,84.1123956 226.187776,84.7151212 227.37704,85.2615482 C226.161348,85.1506069 226.004247,85.0496007 225.161485,85.4105737 L226.384518,85.5231708 C224.569789,85.7053132 221.796308,86.8561216 221.834482,87.5615093 C222.39094,86.5580705 223.553776,87.5449509 224.531615,87.7237815 C223.781351,87.9175148 222.191261,88.472221 223.40989,88.5864739 C223.844485,88.1841049 227.161211,87.616152 224.807642,87.223718 C225.804569,86.9620954 227.143592,86.470311 228.274127,86.7534596 C226.943913,87.2435881 227.818977,87.5863469 227.447515,88.2569619 C228.629438,87.6658271 228.589796,86.9604395 228.782134,86.6243041 C232.163462,87.4638147 233.534786,89.2604006 237.343368,88.5599805 C237.842565,88.430825 235.033846,88.8729341 235.39503,88.2056308 C238.178789,87.0548224 239.015679,89.4160495 241.427977,88.9342002 L240.749656,87.8198202 C241.498452,87.626087 243.320522,87.4439447 244.217609,87.3495618 C244.446652,87.7237815 247.020455,88.4887794 245.113227,88.8381615 C249.252161,89.4872506 248.773518,86.4570643 253.517361,86.8064464 C251.322361,86.5166745 251.069826,86.5812523 249.346127,86.5961548 C251.185816,85.9768709 249.628027,86.0977471 249.830642,85.3244701 C250.934749,86.0414486 254.499605,85.4072621 252.071157,86.3229413 C253.540853,86.3709607 256.486117,86.4669993 257.167375,86.0050201 L255.879739,85.6208654 C257.261341,85.6341121 258.62092,85.3493077 259.648679,84.9303803 C260.993575,84.9485945 262.342876,84.9105102 263.480753,84.9999255 C263.501308,84.9966139 263.517458,84.9933022 263.536545,84.9899905 C264.197247,85.1472953 264.665612,85.4271321 265.057629,85.6804756 C265.157468,86.6590767 262.398669,86.2252468 260.426839,86.3030712 C261.682174,86.7269661 260.95687,87.0862833 260.042164,87.4704381 C259.877722,87.5002432 259.767605,87.5565417 259.689789,87.6211195 C259.584077,87.667483 259.482769,87.7121907 259.379993,87.76021 L259.616378,87.7585542 C259.598759,87.8678396 259.651615,88.0003067 259.82193,88.1824491 C261.476622,87.8976447 262.742234,88.7156294 263.808167,88.7272203 C262.755448,87.1359585 267.434689,88.3596239 268.775181,87.8694954 L270.321224,87.7121907 L270.899706,87.708879 C271.015696,87.884398 270.851254,88.1029688 269.968849,88.4175783 C270.704431,88.1046246 273.160776,88.21391 272.933201,87.7039115 L278.535957,87.6807297 C278.710676,87.7453074 278.885395,87.8264436 279.014599,87.9406965 C279.208405,87.8396903 279.240706,87.7585542 279.215746,87.677418 L303.626495,87.574756 C302.42108,87.4489122 301.380107,87.0862833 300.137987,86.9107643 C302.002635,85.8543387 298.101555,86.7203428 298.649204,85.7218716 C299.486094,85.3575869 300.712064,85.4718398 301.443241,85.7152482 C301.714863,85.2102172 300.67389,84.7631405 300.794284,84.1604149 C297.715411,83.5262284 297.24411,85.9404424 294.235712,85.572846 C294.354639,84.9684646 295.284027,84.4402518 293.315134,84.5213879 L293.815799,84.3922324 C290.660579,85.067815 291.356518,83.024509 289.371475,84.6820044 L289.422863,83.8093769 C287.992809,84.4667452 285.20905,84.4717127 283.639515,84.592589 L283.733482,84.4236934 C279.331736,85.4221646 281.262455,84.6356409 276.318933,85.0545683 L278.594686,84.036227 C276.890074,83.6156437 276.505398,84.7217445 275.280896,84.6091474 C275.354308,84.4684011 275.181057,84.0031102 275.787435,83.7597018 L270.243408,85.1953146 C268.813355,85.8543387 270.535585,85.8377803 270.757288,86.2086884 C270.227258,86.7749855 267.631431,86.4471293 267.494886,85.9089814 C267.844324,85.6755081 269.252355,85.4519697 268.367013,85.109211 L266.314431,86.5001161 C263.58206,85.6341121 268.390505,84.6720693 269.739806,84.1819408 C269.214181,84.1471682 268.772244,84.1604149 268.359672,84.1918759 C272.203492,83.5311959 275.584819,82.9251586 280.164221,82.385355 C283.201983,84.9717763 287.426074,82.7728214 291.10692,82.6502893 C291.167117,82.7132112 291.265488,82.7794448 291.450485,82.8556134 C291.493064,82.7761331 291.553261,82.7132112 291.607585,82.6453218 C292.403365,82.663536 293.169779,82.787724 293.886274,83.107301 L295.015341,81.8124345 L295.024151,81.8124345 C296.937251,83.2463915 299.550696,82.4615236 302.262512,82.529413 C302.265448,82.5641856 302.281599,82.5906791 302.28013,82.6287634 C302.86008,82.7032762 303.462054,82.7314254 304.066963,82.7397046 C304.655722,82.8688601 305.243013,83.0609375 305.822963,83.3639561 C306.767033,82.7943473 307.263294,82.6155167 307.483528,82.5691532 C307.436545,82.5509389 307.382221,82.5178221 307.327896,82.4681469 C308.110462,82.3323681 308.851916,82.1518816 309.539047,81.9184082 C309.931064,82.0690896 310.185067,82.3489265 310.127806,82.9367495 L309.848843,83.1056452 C309.687338,84.7548613 313.190528,82.3356798 314.419435,83.7630134 L313.745518,81.9978885 L315.83187,82.2959396 L315.273943,82.6353867 C315.739371,82.4333743 316.184244,82.2727579 316.626181,82.1187648 C318.57305,82.3770758 320.387779,82.7645422 320.900191,82.2479203 C321.622559,81.8852914 322.5079,81.5541235 323.446097,81.2312348 C327.786177,81.5408768 331.443532,83.0493466 336.939107,80.7377947 C335.811508,82.663536 338.617291,79.7260767 338.727408,81.8306487 C340.484876,83.9997985 342.029452,82.2363294 343.497679,81.136852 C344.071756,81.1136702 344.657579,81.1004235 345.234592,81.0938002 C345.341773,81.1318845 345.441612,81.1732805 345.523833,81.2246115 C345.503278,81.178248 345.510619,81.1335403 345.54292,81.0904885 C345.829224,81.0888326 346.111124,81.0904885 346.384214,81.0921443 C346.388619,80.9927939 346.282906,80.9215928 346.137552,80.8619826 L346.102314,80.8023724 C346.102314,80.8023724 346.065609,80.8139633 346.034776,80.8238983 C346.014221,80.817275 345.992197,80.8106516 345.970174,80.8040282 C345.692679,80.5738666 345.416652,80.466237 345.139157,80.4463669 C345.140625,80.3867567 345.192013,80.3188673 345.341773,80.2294519 L347.579351,80.4115943 C347.475107,80.5059771 347.423719,80.6136067 347.447211,80.7377947 C346.99206,81.4282797 347.184398,81.2908451 347.538241,80.9364954 C348.028629,80.8553593 348.563064,80.7659439 349.113649,80.6732169 C357.003903,82.3075305 367.024555,80.4728603 375.958719,81.3570786 L375.55202,80.6715611 C377.905589,80.8023724 380.834702,79.971141 382.621535,81.0656509 C384.409836,82.1568491 386.528488,79.3270194 387.22296,79.217734 C389.180107,78.0387763 390.962535,80.383445 390.121241,80.2625687 C391.360425,80.0688355 392.558498,79.1498446 393.929823,78.6381902 C394.235214,78.7193263 394.539137,78.8004624 394.844528,78.908092 C395.574237,79.9314008 400.861324,79.837018 405.019344,79.4363048 L404.981171,79.6879924 C405.012003,79.5919537 405.022281,79.5157851 405.041368,79.434649 C405.759331,79.3634479 406.431779,79.2839676 407.052839,79.1995198 C410.086197,79.5306877 413.060826,77.6860825 416.374615,79.0273125 C416.374615,79.0273125 416.296799,79.2144223 416.161722,79.3849738 L419.72511,76.0136846 C419.726579,76.0136846 419.728047,76.0136846 419.728047,76.0120287 L419.50194,76.4458587 C420.099508,76.9094937 420.437201,72.4105778 427.051565,77.9063091 L427.051565,78.1066657 C427.280609,78.0718931 427.27914,77.6728357 427.737227,78.2043602 L426.593478,76.9773831 C427.27914,76.4756638 427.878177,75.5169327 428.789946,75.3811539 C428.985221,75.6046922 429.049823,76.0153404 429.070378,76.3365733 L431.309425,76.0004378 L431.995087,77.2953043 C432.679281,76.5932284 432.368017,73.8610932 434.198896,75.3828097 C433.508829,73.4885293 435.107729,74.2469038 434.881622,73.2815494 C434.97412,73.5166786 435.184077,73.8660607 435.352923,74.1906053 C436.44088,73.9703786 438.491993,73.44051 439,72.4668763 C439,72.4668763 437.794585,71.3375938 436.495204,69.9781496 C437.288047,69.7479879 437.945813,69.478086 438.265886,69.1551973 L438.265886,69.1551973 Z" id="Fill-29" transform="translate(219.500000, 58.000000) rotate(-180.000000) translate(-219.500000, -58.000000) "></path>
            </g>
        </g>
    </g>
</svg>