<?xml version="1.0" encoding="utf-8"?>
<!-- Generator: Adobe Illustrator 24.0.0, SVG Export Plug-In . SVG Version: 6.00 Build 0)  -->
<svg version="1.1" id="Layer_1" xmlns="http://www.w3.org/2000/svg" xmlns:xlink="http://www.w3.org/1999/xlink" x="0px" y="0px"
	 viewBox="0 0 175 27" style="enable-background:new 0 0 175 27;" xml:space="preserve">
<style type="text/css">
	.st0{fill-rule:evenodd;clip-rule:evenodd;fill:#FFFFFF;}
</style>
<title>4E4A7209-650C-4B68-9AAD-80D40DB131D8</title>
<desc>Created with sketchtool.</desc>
<g id="Page-1">
	<g id="HOME" transform="translate(-685.000000, -863.000000)">
		<g id="Group-7" transform="translate(685.000000, 850.000000)">
			<path id="Fill-29-Copy" class="st0" d="M36.3,15.5C36.3,15.5,36.3,15.4,36.3,15.5C36.2,15.6,36.2,15.6,36.3,15.5L36.3,15.5z
				 M38,15.5C38,15.5,38,15.5,38,15.5l-0.3,0C37.8,15.5,37.9,15.5,38,15.5L38,15.5z M51.7,15.5c-0.1,0-0.1,0-0.2,0
				C51.6,15.5,51.7,15.5,51.7,15.5L51.7,15.5z M68.8,14.4c-0.3,0.1-0.5,0.1-0.8,0.2C68.2,14.5,68.5,14.5,68.8,14.4L68.8,14.4z
				 M73.2,14.3c1.5,0.5-0.4,0.5,0.6,1.1l1.1-0.5l-0.5-0.1c0.2-0.6,1.7,0.1,1.6-0.7c1.1,0.6,1.4,0.2,2.7,0.8c0.3-0.3-0.2-0.3-0.5-0.3
				c0.6,0,0.7-0.7,1.5-0.3c0.4,0.1,0.1-0.5-0.6-0.5c0.6,0,1.2-0.1,1.9,0l-0.7-0.5l0.7,0L80.4,13c1.4-0.1,3,0,3.7,0.7
				c-1.2,0.5-3.2,0.3-3.9,1.1c0.3,0.2,1-0.6,1.3,0.1l0.4-0.5c0.4-0.2,1.4-0.3,1.5,0.1c-0.9,0.3-1.3,0.6-1.7,0.9l0-0.4
				c-0.3,1.1-1.4-0.3-1.3,0.9c0,0-0.1,0-0.1,0c-0.2-0.1-0.4-0.2-0.6-0.1c0-0.1,0.1-0.2,0.1-0.3c-0.4-0.2-0.8-0.2-1.1-0.1
				c0-0.1,0-0.3,0-0.5c-1.2-0.1-2,0.6-3,0.8c-0.3-0.2-0.8-0.3-0.6-0.4c-0.5-0.1-0.9,0.1-1.2,0.3c-0.4-0.7-1.2-0.9-2-1
				C72.2,14.5,72.5,14.3,73.2,14.3L73.2,14.3z M102.8,14l1.5,0.2c-0.3,0-0.3,0.1-0.4,0.2c1.1-0.3,1.4,0.1,2.2-0.4
				c0.5,0.2-0.8,0.3-0.2,0.4c-0.3,0.1-0.6,0.3-0.8,0.5c0-0.1,0-0.2,0.1-0.2l-0.1,0.3c-0.1,0.1-0.2,0.2-0.3,0.3c0.1,0,0.2,0,0.2,0
				c-0.1,0.3-0.1,0.5-0.2,0.8l-0.4,0.1c0.1,0,0.2,0,0.4,0c-0.1,0.2-0.1,0.4-0.2,0.6c-0.5,0-1-0.1-1.6,0.3c0-0.7-0.3-0.8,0-1.2
				c0.1,0,0.1,0,0.1,0c0.3-0.4,1-0.8,1.5-0.9c-1.9-0.2-1.4,0-3-0.2C101.5,14.3,103.1,14.3,102.8,14L102.8,14z M107,14.2
				c-0.5,0.6-0.3,0.4-1.4,0.8c-0.2-0.4-0.1-0.5,0.2-0.8c0,0-0.1,0-0.1,0c0.1-0.1,0.3-0.1,0.6-0.1L107,14.2z M107.4,14.5
				C107.4,14.5,107.4,14.5,107.4,14.5C107.3,14.5,107.3,14.5,107.4,14.5C107.4,14.5,107.4,14.5,107.4,14.5L107.4,14.5z M111,16.2
				c0.5-0.7,0-0.7,1.1-1.2c0.4,0.3,0.6,0.8,0.7,1.2c0.4-0.4,1.4-0.6,2.5-0.6l-0.5,0.2c0.2,0,0.4,0,0.5,0c0,0.1,0,0.1,0,0.2l-0.7,0.3
				c-0.6,0-1.1-0.1-1.7-0.1c0-0.1,0-0.2-0.1,0c0,0,0,0,0,0c0,0-0.1,0-0.1,0c0,0,0,0,0,0.1c-0.6-0.1-0.4,0.2-0.5,0.4
				c-0.4-0.1-0.9-0.1-0.9-0.4c-0.3,0.3-0.8,0.5-1.2,0.7l-0.2-0.5L111,16.2z M116.2,15.4l-0.2,0.6c-0.2,0-0.4-0.3-0.6-0.5
				c0.2-0.1,0.4-0.2,0.6-0.3C115.9,15.2,116,15.2,116.2,15.4L116.2,15.4z M133.7,18.2L133.7,18.2c0,0-0.1,0.1-0.1,0.1
				c-0.4,0.2-0.5,0.4-0.4,0.6l-0.2,0l-0.8-0.9l0.6,0C133.2,18.1,133.5,18.2,133.7,18.2L133.7,18.2z M139.3,18.2c0,0,0,0.1-0.2,0.1
				c1.2,0,1.5,0,2.2-0.1c0,0.2-0.1,0.4-0.2,0.6l-0.5,0l-0.2-0.1l-0.3,0.2l-0.7,0c-0.1-0.2,0-0.4,0-0.5c-0.4,0.2-0.8,0.2-1.3,0.2
				C138.7,18.4,139,18.3,139.3,18.2L139.3,18.2z M159.7,21.3C159.7,21.3,159.7,21.3,159.7,21.3L159.7,21.3
				C159.7,21.3,159.7,21.3,159.7,21.3c0.1,0.1,0.1,0.2,0,0.2c0,0.2,0,0.3-0.2,0.2l0-0.1c-0.1,0-0.2,0-0.2,0c0-0.1-0.1-0.1-0.3-0.2
				C159.1,21.4,159.5,21.4,159.7,21.3L159.7,21.3z M160.9,26.2c0.1,0.2,0.4,0.5,0.2,0.6l-0.4-0.3C160.7,26.4,160.8,26.3,160.9,26.2
				L160.9,26.2z M116.9,38.7c1.2-0.2,0.9-0.7,2-0.6c0.1,0.5,0.9,0,1.6,0l-0.5,0.4l0.8,0.2C119.9,39.2,117.4,39,116.9,38.7
				L116.9,38.7z M117.7,37.1c0.5,0.3,1.4,0,1.5,0.7c-0.5,0-0.9,0-1.3,0c0,0,0.1,0,0.1,0C117.9,37.8,117.7,37.6,117.7,37.1
				L117.7,37.1z M110,37.9c0-0.2,0.1-0.4,0.1-0.5c0.5-0.2,1-0.3,1.4-0.3C111.1,37.4,110.8,38,110,37.9L110,37.9z M107,37.6
				c0.4-0.1,0.8-0.2,1.3-0.2c0.1,0.1,0.1,0.1,0.2,0.2C108,37.6,107.4,37.6,107,37.6L107,37.6z M104.7,37.7c0.5-0.1,1-0.2,1.5-0.3
				C105.3,37.6,105,37.7,104.7,37.7L104.7,37.7z M95.3,37.8c-0.3-0.1-0.5-0.2-0.6-0.3c0.7-0.3,1.4-0.5,2.3-0.3
				C96.6,37.5,96.3,37.9,95.3,37.8L95.3,37.8z M92.3,38c-0.6-0.4-0.9-0.4-1.3-0.5C91,37.5,91,37.3,91,37c0.4,0.7,1.4-0.3,1.5,0.6
				C92.3,37.7,92.2,37.8,92.3,38L92.3,38z M87.3,38.4l0.7,0.4l-0.7,0l0.6,0.2c-1.4,0.1-3,0-3.8-0.5c1.2-0.4,3.3-0.2,4-0.8
				c-0.3-0.2-1,0.4-1.3-0.1l-0.4,0.3c-0.4,0.1-1.4,0.2-1.5-0.1c0.3-0.1,0.5-0.1,0.7-0.2l0,0.1l0.1-0.2c0.5-0.2,0.8-0.4,1.2-0.6
				c0,0,0.1,0.1,0.1,0.2l-0.2,0.2l2.7,0.2l0,0.5c-0.2,0.1-0.4,0.1-0.8,0c-0.4-0.1-0.1,0.4,0.6,0.4C88.6,38.4,88,38.5,87.3,38.4
				L87.3,38.4z M83.5,37.7c0-0.1,0-0.3,0.2-0.3c0.1,0,0.1,0,0.1,0c0,0,0,0,0,0C83.9,37.5,83.8,37.7,83.5,37.7L83.5,37.7z M77.6,37.5
				c-0.1,0-0.1,0.1-0.1,0.1l0-0.2C77.5,37.4,77.6,37.4,77.6,37.5C77.7,37.4,77.6,37.4,77.6,37.5L77.6,37.5z M65.7,38.8
				c0-0.2,0.1-0.4,0.1-0.6c0.2,0,0.4,0,0.6,0.1C66.6,38.5,66.1,38.7,65.7,38.8L65.7,38.8z M65.2,38.6c0.1-0.1,0.2-0.1,0.3-0.1
				C65.4,38.5,65.3,38.5,65.2,38.6L65.2,38.6z M63.4,38.8C63.4,38.8,63.5,38.8,63.4,38.8c0.3-0.1,0.4-0.2,0.5-0.3
				c-0.1,0-0.2,0-0.3,0.1c0.2-0.2,0.3-0.2,1.2-0.6h0c0.2,0.4,0.1,0.6-0.1,0.9L63.4,38.8z M55.3,37.8c-0.1-0.1-0.2-0.1-0.3-0.2
				l1.1-0.4c0.1,0,0.3,0,0.4,0C56.4,37.4,56.2,37.5,55.3,37.8L55.3,37.8z M51.5,37.6c0-0.1,0-0.1-0.1-0.2c0.1,0,0.2,0.1,0.3,0.1
				C51.7,37.5,51.6,37.6,51.5,37.6L51.5,37.6z M35.9,37.9c0.2-0.4,0.2-0.5,0.3-0.6c0.1,0,0.2,0,0.4,0l0-0.3c0,0,0,0,0,0
				c0.1,0.5,0,0.6-0.1,1L35.9,37.9z M35.2,37.8l0-0.5c0.3-0.2,0.5-0.2,0.7-0.1c0,0.2,0,0.5,0,0.7L35.2,37.8z M30.9,37.6l0-0.2
				c0,0,0.1,0.1,0.1,0.1C31,37.6,30.9,37.6,30.9,37.6L30.9,37.6z M8.5,31.6c0.1-0.2,0.4-0.2,0.6,0C8.9,31.6,8.7,31.5,8.5,31.6
				L8.5,31.6z M126.2,17.1L126.2,17.1l1.5,0l-0.3,0.8l-1.2-0.6L126.2,17.1C126.1,17.1,126.1,17.1,126.2,17.1L126.2,17.1z
				 M157.7,21.5c0.1,0,0.2,0.1,0.3,0.1C157.9,21.5,157.8,21.5,157.7,21.5L157.7,21.5z M12.6,31.5L12.6,31.5
				C12.6,31.5,12.6,31.5,12.6,31.5C12.6,31.5,12.6,31.5,12.6,31.5L12.6,31.5z M9.7,31.6c-0.2,0-0.3-0.1-0.4-0.1
				c0-0.1,0.1-0.1,0.1-0.1C9.6,31.5,9.7,31.5,9.7,31.6L9.7,31.6z M127.6,17.5l0.5-0.2c0,0.4,0.2,0.3,0.3,0.4
				C128.1,17.7,127.9,17.6,127.6,17.5L127.6,17.5z M7.3,26.8c-0.1-0.2-0.2-0.6-0.1-0.6l0.3,0.3C7.4,26.6,7.3,26.7,7.3,26.8L7.3,26.8
				z M90,37.4c-0.2,0-0.3,0.1-0.4,0.2C89.7,37.5,89.8,37.4,90,37.4L90,37.4z M0.3,21.6c0,0,0.8,0.4,1.8,1c0,0.1,0.1,0.1,0.1,0.2
				c-0.6-0.2-0.2,0.1,0,0.4l0-0.2c0.4,0.2,0.4,0.7,0.5,0.9c0,0,0-0.1,0-0.1l0,0.1c0-0.1,0-0.2,0-0.2c0-0.1,0-0.2,0.1-0.2l0,0.1
				c0.2-0.1,0.4,0,0.5,0l0,0.4c0.1-0.4,0.6-0.1,1,0.3c-1.1-0.2-0.3,0.1,0,0.4l0.1-0.2c0.1,0,0.2,0.1,0.3,0.1
				c0.1,0.1,0.3,0.3,0.4,0.4c0.1,0.2,0.2,0.3,0.4,0.4c0,0,0-0.1,0-0.1c0,0,0.1,0,0.1,0c0.3,0.5,0.7,0,1.1,0.1l0,0.1c0,0,0,0,0.1-0.1
				c0,0,0.1,0,0.1,0c0.7,0.1,0.4,0.6,0.7,0.9c-0.1,0-0.2-0.1-0.3-0.2c0.3,0.8-0.4,0.5-0.3,0.9c0-0.1-0.1-0.3-0.2-0.4
				c-0.4,0.1-1.3,0.3-1.5,0.8c0,0,0.5,0.5,1,1.1c-0.3,0.1-0.6,0.2-0.7,0.4c0,0,0.8,0.4,1.8,1c0,0.1,0.1,0.1,0.1,0.2
				c-0.6-0.2-0.2,0.1,0,0.4l0-0.2c0.4,0.2,0.4,0.7,0.5,0.9c0,0,0-0.1,0-0.1l0,0.1c0-0.1,0-0.2,0-0.2c0-0.1,0-0.2,0.1-0.2l0,0.1
				c0.2-0.1,0.4,0,0.5,0l0,0.3c-0.1,0-0.2,0-0.3,0.1c0.4,0.1-0.1,0.2,0.5,0.4c-0.2,0.1-0.9,0.2-0.8,0.3c0.2-0.1,0.3-0.2,0.7,0
				c-0.7,0.1-1.3,0.1-2-0.1c0-0.1,0.1-0.1,0.2-0.2c-0.9,0.4-2.2,0.3-2.8,0.8l0.3,0.1c0.2-0.1,0.6-0.1,0.8,0
				c-0.7,0.1,0.5,0.4-0.2,0.6c-1,0.2-1.8-0.3-2.3,0.2c0.9,0.1,2.1,0.3,2.5,0.1l-0.6,0l1.3-0.6c0.1,0.2,1.2-0.1,1.2,0.2
				C6.4,33,6,33,5.6,33c0.1,0.2,1.2,0.1,1.7,0.1L6.8,33c1.1-0.3,2.5-0.2,3.6-0.4c-0.8,0.3,1.1,0.3,0.4,0.6c-0.3,0.2-0.7-0.1-0.6,0
				c-0.1,0.3,0.6,0.1,0.9,0.3c0.1-0.2,1.2-0.3,0.6-0.6c0.2,0.1,0.6,0,1,0c0.1,0.1,0.1,0.3,0.1,0.5c-1.1,0.4-2.2,0.7-2.8,0.9l0.3-0.2
				c-0.8,0.5-1.7,0-2.6,0.4c0-0.1,0.1-0.1,0-0.1c-1.1-0.1-1.5,0.6-2.4,0.3l0.1-0.2c-0.1,0-0.6,0.2-0.5,0.4c0.7-0.1,0.9-0.2,1.5-0.1
				C6,34.9,5.4,35,5,35l0,0.4c-0.5,0.4-1.1-0.2-1.6,0.2l0.6,0.3c0,0-0.1,0-0.1,0c0.3,0,0.5-0.1,0.6-0.2c1-0.2,1.5,0.3,1.6,0.5
				c0.4,0.1-0.2,0.5-0.1,0.7c0.7-0.1,0.7-0.5,1.4-0.6c0.2,0.1,0.1,0.1,0,0.2l0.5-0.2c0,0.1,1.3,0.2,0.5,0.5c-0.1,0-0.3,0-0.5,0
				c1,0.3,2.8,0.6,2.7,1c0.6,0.1,0.4-0.1,1.3,0c0.4-0.3,0-0.6,0.9-0.8l-0.8-0.2c-0.2,0.1-0.3,0.1-0.5,0.2l0.8,0
				c-0.5,0.1-0.4,0.3-0.6,0.6c-1.2,0-1.5-0.5-2.2-0.6c0.4-0.2,1-0.2,0.8-0.5c0.6,0.3,0.7-0.3,1.4,0l-0.1,0.1
				c0.6-0.3,0.6,0.1,1.1-0.2c0,0.1,0,0.1,0.1,0.2c1-0.2-0.3-0.2,0.7-0.6c0.9,0.1,0.3,0.6,0.5,0.8c-1.5,0.5,0,0.6-1.6,1
				c0,0.5,0.7,0.6,1.5,0.5c-0.6-0.2,0.4-0.7-0.4-1.1c1.3-0.2,1.2-1.2,2.7-0.8l0,0.1l0.6-0.4l0.8,0.2c-0.5,0.5-1.2,0.3-1.6,0.6
				c1,0.5,1.4-0.5,2.5-0.5c1,0.6-1.2,0.3-1.2,0.8c0.2-0.1,0.9,0.1,0.8,0.3c-1.1-0.2-0.7,0.3-1.9,0c0.6-0.2-0.1-0.2,0-0.4
				c-0.2,0.2-1.3,0.3-2.1,0.2c-0.2,0.4,0.7,0.3,1.2,0.5c1-0.4,2,0.3,2.7-0.1c1,0,0.1,0.4,0.1,0.4c0.9,0.2,0.4-0.3,0.7-0.4
				c1.4-0.3,1.6,0.4,2.6,0.5c0.8-0.5,2.9-0.3,4.3-0.3c-0.2,0.2,0,0.3,0.1,0.5c0.9-0.7,0.5-0.4,1.6-0.8l-0.9-0.2
				c0.7-0.1,1.3-0.6,2-0.2c-0.6-0.4,0.2-0.5,0.9-0.6c0.2,0.1,0.4,0.2,0.6,0.4c-0.6,0.2-1.1,0.4-1.8,0.4c0.9,0.3,1.5,0,2.1-0.2
				c0.1,0.1,0.1,0.1,0.2,0.2l0-0.2c0.1,0,0.2-0.1,0.3-0.1c0.1,0.2,0.2,0.2,0.2,0c0.2,0,0.4,0,0.7,0.1l-0.5-0.5l0.2-0.2
				c0.1,0,0.2,0,0.2-0.1c0.2,0,0.3,0.1,0.4,0.2l-0.1,0l0.2,0c0,0.1,0,0.2,0,0c0,0,0,0,0,0l0.9,0.1l-0.1,0.6c0.7,0.2,1.6-0.2,1.4-0.4
				c0.8,0.2,0.3,0.2,0.4,0.5c-0.4,0.2-1.4,0.7-1.6,0.2c0.1,0,0.2,0.1,0.3,0c-2-0.3-0.7,0.7-1.7,0.9c0.5,0,0.9,0.3,1.5,0.2
				c0.3,0,1.3-0.2,1.9-0.5c-0.7,0.3-1.1,0-1.7-0.2c0.5,0,0.6-0.3,1-0.1L34.6,38l0.5-0.2c0,0.2,0.5,0.2,0.8,0.3c0,0,0,0,0,0.1
				c0,0,0,0,0-0.1c0.2,0,0.2,0.1-0.1,0.3c0.6-0.1,0.3-0.3,0.7-0.4c0.3,0.2,0.2-0.4,0.5-0.4c0-0.1,0-0.2,0-0.4l0.3,0.1
				c-0.1-0.3,0.6-0.2,0.8-0.2c0.5,0.2,0.2,0.8,1.1,0.5l-0.1,0c0.5-0.1,0.8-0.2,1.5-0.1c0,0.1-0.2,0.1-0.3,0.2c0.8,0.2,2.1-0.2,2.8,0
				c0,0.1-0.1,0.2-0.1,0.2l0.2-0.2c0.1,0,0.2,0.1,0.3,0.2c-0.1,0.3-0.5,0.1-0.5,0.5c-1.5-0.5-1.1,0.6-2.9,0.3
				c-0.1-0.9-1.5,0.5-1.9-0.3c0.7,0.1,1.7-0.4,1.5-0.5c-0.7,0-1.6,0.1-2,0c0.4,0.3,0.3,0.7,0,1c1.1-0.2,3,0.3,4.5,0.4l-0.2-0.5
				c1.3-0.4-0.2,0.5,0.9,0.5l0.4-0.4l0.1,0l0.7-0.5c-0.5,0-0.3,0.4-0.9,0.2c-0.5-0.2,0-0.4,0.2-0.7c0.4,0.2,1.6,0,0.8,0.4l1.4-0.5
				c0,0.2-0.3,0.3-0.4,0.4l1-0.1l0,0.1c0.7-0.2,1.6-0.2,2.3-0.5c0.1,0,0.3,0.1,0.5,0.1l-0.2-0.3c0.3-0.1,0.7-0.2,0.9-0.2
				c0,0.3-0.2,0.6-0.8,0.8c-0.3-0.3-1,0.1-1.5,0.1c0.7,0.2,0.9-0.1,1.4-0.1c-0.4,0.2,0.7,0.3,0.7,0.5c-0.1,0.1-0.3,0.6-1,0.4
				c-1,0-0.1-0.5-0.4-0.4c-0.3-0.5-1.4,0.1-2-0.1c-0.1,0,0.1-0.1,0.2-0.1c-0.5,0-1.6,0-1.7,0.4l1.3-0.2c0.3,0.1-0.4,0.3,0,0.5
				c0.3-0.1,0.7-0.1,1,0l-0.1,0.1c0.8,0.3,2,0.2,3,0c0.2-0.6,0.5-1,0.8-1.5c0.3,0,0.7,0.1,1,0.1c-0.7,0.1-1,0.5-0.6,0.8l0.2-0.1
				l0.5,0.4c0.1-0.5,0.9-0.4,1.6-0.5c0.1,0.1,0.3,0.1,0.4,0.2c-0.4,0.3-0.8,0.5-1.3,0.2l0.1,0.4c-0.6,0.1-1.1-0.3-1.5,0l0.7-0.1
				l0,0.2c0.5,0,1.2-0.3,1.6-0.1c0.2-0.1,0.4-0.3,0.7-0.4c0,0,0.1,0,0.1,0.1l0-0.1c0.2-0.1,0.5-0.1,0.8-0.1c0.1,0,0.1,0.1,0.2,0l0,0
				c0.8-0.7,2.1,0.4,2.7,0.1c0.3-0.7-1.2-0.3-1.6-0.5c0.5-0.3,1,0.1,0.6-0.3c0.2-0.1,0.3-0.1,0.4-0.1c0.1,0,0.1,0.1,0.2,0.1l0,0
				c0,0,0,0,0,0c0,0,0.1,0,0.1,0.1c0,0,0,0,0-0.1c0.1,0,0.1,0,0.1,0c0.1,0.1,0.3,0.2,0.7,0L58,37.9c0-0.1,0-0.1,0-0.2
				c0.1,0,0.2-0.1,0.3-0.1c0.1,0,0.2,0,0.3,0.1c0.2,0.2,0.3,0,0.4-0.2c0.1,0,0.1-0.1,0.2-0.1c0-0.1,0-0.1-0.1-0.2
				c0.1-0.2,0.2-0.3,0.4-0.2l0.6,1c1.1,0.6,1.3-0.4,2.8-0.4c0.3,0.2,0.6,0.4,0.7,0.7c-0.1,0-0.2,0.1-0.3,0.1c0.1,0,0.2,0,0.3,0
				C64,38.6,64,38.8,64,39c-0.7,0.1-1.1-0.1-1.8,0.3c-0.5-0.2,0.8-0.3,0.2-0.4c0.5-0.1,0.9-0.5,1.1-0.8c-1.2-0.2-0.7,0.5-1.7,0.7
				l-0.8-0.3c-0.5,0.1,0.2,0.2,0.2,0.3c-0.6,0.1-0.8-0.2-1.2-0.2c0.1,0.1,0.4,0.2,0.3,0.3c-0.7-0.3-1.4-0.1-2.1-0.7
				c0.4,0.3-0.4,0.7-0.7,0.8l1.3,0.6c1.7-0.2,2.8,0.1,4.6-0.2l-0.1,0.2c2.9,0.7,2.4-1.1,4.9-1.1c0.1,0.5,1.1-0.1,1.1,0.5
				c-0.7,0-0.6,0.2-0.4,0.4c0.4-0.2,0.7-0.6,1.6-0.4c-0.3,0.3,0.4,0.5-0.4,0.6c1.1,0.1,1.8,0.1,2.3-0.4c1.9-0.5,0.6,0.6,2.4,0.3
				l-0.3,0.2l1.1-0.1l-0.4-0.3l1.4-0.3c0.8-0.3-0.3-0.3-0.2-0.6l-0.3,0.4c-0.5-0.1-1.3,0.2-1.4,0c0.9-0.1,0.7-0.4,1-0.5L75,38.5
				l-0.3-0.3c-0.8,0-1.5-0.1-2,0.3c0.4,0.1,0.6-0.3,0.9-0.1c-0.4,0.5-1.5,0.5-2.5,0.7c0-0.1-0.4-0.2-0.2-0.3c0,0,0.2,0,0.3,0
				c-0.1-0.2,0.5-0.4-0.5-0.5c0.3-0.3,0.9-0.8,1-1c1,0.6,1.9,0.2,3-0.1c0.2,0,0.4,0,0.4,0.2c0.3-0.1,1-0.2,0.5-0.3
				c0.1,0,0.2,0,0.3,0l-0.2,0.5c0.6,0.5,0.2-0.8,0.8-0.5l0,0.6c0.1-0.2,0.3-0.3,0.4-0.3c0.2,0.2,0.4,0.4-0.4,0.8
				c0,0,0.4-0.1,1.1-0.2c0,0,0.1,0.1,0.1,0.1c-0.1,0-0.2,0-0.2-0.1c-0.5,0.4,0.2,0.6,1,0.6l0.2-0.4c0.1,0,0.2,0.1,0.3,0.1
				c0,0.2-0.1,0.5-0.2,0.6l0.5-0.5c0,0,0.1,0,0.1,0l0.1,0.6c0.3-0.6,0.4-0.3,0.7-0.2l-0.7,0.4l-0.2,0.3l1.3-0.4
				c-0.2,0.2,0.5,0.1,0.2,0.3c0.1,0,0.6-0.1,0.4-0.2l-0.3,0c0.7-0.5,0.3-0.7,1.4-1.1c-0.5-0.2-0.8-0.1-1,0l0-0.2l1-0.7
				c0.2,0.1,0.4,0.2,0.6,0l-0.4,0.3c0.4-0.1,0.6-0.1,0.8,0c-0.1,0.2,0,0.4,0.4,0.6c-0.5,0-0.5-0.1-0.9,0.1l0.5,0
				c-0.7,0.1-1.8,0.6-1.8,0.9c0.2-0.4,0.7,0,1.1,0.1c-0.3,0.1-0.9,0.3-0.4,0.4c0.2-0.2,1.5-0.4,0.6-0.6c0.4-0.1,0.9-0.3,1.4-0.2
				c-0.5,0.2-0.2,0.4-0.3,0.7c0.5-0.3,0.5-0.6,0.5-0.7c1.3,0.4,1.9,1.1,3.4,0.8c0.2-0.1-0.9,0.1-0.8-0.2c1.1-0.5,1.4,0.5,2.4,0.3
				l-0.3-0.5c0.3-0.1,1-0.2,1.4-0.2c0.1,0.2,1.1,0.5,0.4,0.6c1.6,0.3,1.5-1,3.4-0.9c-0.9-0.1-1-0.1-1.7-0.1c0.5-0.2,0.4-0.2,0.3-0.3
				c0.2,0,0.4,0,0.6-0.1c0.5,0,0.9,0,0.2,0.3c0.6,0,1.8,0.1,2-0.1L95,38.5c0.6,0,1.2-0.1,1.6-0.4c0,0,0.1,0,0.1,0
				c0.3,0.4,0.7,0.6,1.2,0.7c-0.3,0-0.7,0-1.1,0c0.5,0.2,0.2,0.3-0.2,0.5c-0.1,0-0.1,0-0.1,0.1c0,0-0.1,0-0.1,0.1l0.1,0
				c0,0,0,0.1,0.1,0.2c0.7-0.1,1.2,0.2,1.6,0.2c-0.4-0.7,1.4-0.2,2-0.4l0.6-0.1l0.2,0c0,0.1,0,0.2-0.4,0.3c0.3-0.1,1.3-0.1,1.2-0.3
				l2.2,0c0.1,0,0.1,0.1,0.2,0.1c0.1,0,0.1-0.1,0.1-0.1l9.7,0c-0.5-0.1-0.9-0.2-1.4-0.3c0.7-0.5-0.8-0.1-0.6-0.5
				c0.3-0.2,0.8-0.1,1.1,0c0.1-0.2-0.2-0.4-0.3-0.6l0.3-0.4c0.9,0.7,2.2,0.1,3.4,0.4c-0.8,0-1.7,0.1-2.6,0.3c1.6,0.4-1,0.4-0.5,0.9
				l0.9-0.2l-0.1,0.1l1,0c-0.2-0.3-0.4-0.3-0.3-0.5c1.4,0.1,0.4,0.3,1.5,0.6l1.6,0l-0.1,0.1c0.1,0,0.2,0,0.2-0.1l5.3-0.2
				c1-0.2-0.5-0.5,0.2-0.9c-1,0-2.4-0.2-2.8,0.1l-0.2-0.5l0.8,0.1l-0.2,0.1c3.6-1.7,5.2,0.7,8.6-0.8c-0.5,0.8,0.7-0.4,0.7,0.5
				c0.1,0.1,0.2,0.2,0.3,0.3c0,0,0,0-0.1,0l-0.1,0.8c0.7-0.1,0.7-0.5,0.4-0.7c0.1,0,0.3,0,0.4,0c0.1,0.1,0.1,0.3,0.4,0
				c0-0.1,0-0.1-0.1-0.1c0.4-0.2,0.7-0.7,1.1-0.8c0,0,0-0.1,0-0.2l1.2,0.1c-0.7,1.2,0.9-1,0.2,0c3.2,0.9,7.4,0,11.1,0.4l-0.2-0.3
				c0.9,0.1,2.1-0.3,2.8,0.2c0.7,0.5,1.6-0.8,1.8-0.8c0.8-0.5,1.5,0.5,1.2,0.5c0.8-0.1,1.6-1.2,2.8-0.7c0.4,1,3.2-1,3.2,0.1l0-0.1
				c1.5,0.8,2.9-0.5,4.5,0.2c0,0,0,0.1-0.1,0.2l2.7-2.8c0.5,0.2,1.1,0.4,1.7,0.7v0.1c0.2,0,0.2-0.2,0.5,0l-0.9-0.5
				c0.5-0.2,1-0.6,1.7-0.7c0.1,0.1,0.2,0.3,0.2,0.4l1.7-0.1l0.5,0.6c0.5-0.3,0.3-1.5,1.7-0.8c-0.5-0.8,0.7-0.5,0.5-0.9
				c0.1,0.1,0.2,0.3,0.4,0.4c0.8-0.1,2.4-0.3,2.8-0.8c0,0-3.2-1.7-4.1-2.6c1.2,0.2,0.3-0.1,0.1-0.4l-0.1,0.2c-0.7-0.2-0.7-0.7-1-0.9
				c0,0,0,0.1,0,0.1l0-0.1c0,0.1,0,0.2,0,0.2c0,0.1,0,0.2-0.2,0.2l0-0.1c-0.3,0.1-0.8,0-1,0l0-0.4c-0.5,0.8-3.5-1.3-4.2-1.3
				c-0.7-0.5-1.6,0.1-2.4-0.1c-1.3-0.1-0.8-0.6-1.3-1c0.2,0,0.4,0.1,0.6,0.2c-0.5-0.8,0.7-0.5,0.5-0.9c0.1,0.1,0.2,0.3,0.4,0.4
				c0.8-0.1,2.4-0.3,2.8-0.8c0,0-3.2-1.7-4.1-2.6c1.2,0.2,0.3-0.1,0.1-0.4l-0.1,0.2c-0.6-0.2-0.7-0.6-0.9-0.8c0,0,0.1,0,0.1-0.1
				c0,0-0.1,0-0.1,0c0,0,0,0-0.1,0c0,0,0,0,0,0.1c-0.1,0-0.3,0.1-0.5,0c0.7-0.1,1.3-0.1,2,0.1c0,0.1-0.1,0.1-0.2,0.2
				c0.9-0.4,2.2-0.3,2.8-0.8l-0.3-0.1c-0.2,0.1-0.6,0.1-0.8,0c0.7-0.1-0.5-0.4,0.2-0.6c1-0.2,1.8,0.3,2.3-0.2
				c-0.9-0.1-2.1-0.3-2.5-0.1l0.6,0l-1.3,0.6c-0.1-0.2-1.2,0.1-1.2-0.2c0.5-0.1,0.9-0.1,1.2-0.1c-0.1-0.2-1.2-0.1-1.7-0.1l0.6,0.1
				c-1.1,0.3-2.5,0.2-3.6,0.4c0.8-0.3-1.1-0.3-0.4-0.6c0.3-0.2,0.7,0.1,0.6,0c0.1-0.3-0.6-0.1-0.9-0.3c-0.1,0.1-0.5,0.2-0.7,0.3
				l-0.4-0.4c0.9-0.3,1.7-0.6,2.2-0.7l-0.3,0.2c0.8-0.5,1.7,0,2.6-0.4c0,0.1-0.1,0.1,0,0.1c1.1,0.1,1.5-0.6,2.4-0.3l-0.1,0.2
				c0.1,0,0.6-0.2,0.5-0.4c-0.7,0.1-0.9,0.2-1.5,0.1c0.3-0.2,0.8-0.4,1.3-0.4l0-0.4c0.5-0.4,1.1,0.2,1.6-0.2l-0.6-0.3
				c0,0,0.1,0,0.1,0c-0.3,0-0.5,0.1-0.6,0.2c-1,0.2-1.5-0.3-1.6-0.5c-0.4-0.1,0.2-0.5,0.1-0.7c-0.7,0.1-0.7,0.5-1.4,0.6
				c-0.2-0.1-0.1-0.1,0-0.2l-0.5,0.2c0-0.1-1.3-0.2-0.5-0.5c0.1,0,0.3,0,0.5,0c-1-0.3-2.8-0.6-2.7-1c-0.6-0.1-0.4,0.1-1.3,0
				c-0.4,0.3,0,0.6-0.9,0.8l0.8,0.2c0.2-0.1,0.3-0.1,0.5-0.2l-0.8,0c0.5-0.1,0.4-0.3,0.6-0.6c1.2,0,1.5,0.5,2.2,0.6
				c-0.4,0.2-1,0.2-0.8,0.5c-0.6-0.3-0.7,0.3-1.4,0l0.1-0.1c-0.6,0.3-0.6-0.1-1.1,0.2c0-0.1,0-0.1-0.1-0.2c-1,0.2,0.3,0.2-0.7,0.6
				c-0.9-0.1-0.3-0.6-0.5-0.8c1.5-0.5,0-0.6,1.6-1c0-0.5-0.7-0.6-1.5-0.5c0.6,0.2-0.4,0.7,0.4,1.1c-1.3,0.2-1.2,1.2-2.7,0.8l0-0.1
				l-0.6,0.4l-0.8-0.2c0.5-0.5,1.2-0.3,1.6-0.6c-1-0.5-1.4,0.5-2.5,0.5c-1-0.6,1.2-0.3,1.2-0.8c-0.2,0.1-0.9-0.1-0.8-0.3
				c1.1,0.2,0.7-0.3,1.9,0c-0.6,0.2,0.1,0.2,0,0.4c0.2-0.2,1.3-0.3,2.1-0.2c0.2-0.4-0.7-0.3-1.2-0.5c-1,0.4-2-0.3-2.7,0.1
				c-1,0-0.1-0.4-0.1-0.4c-0.9-0.2-0.4,0.3-0.7,0.4c-1.4,0.3-1.6-0.4-2.6-0.5c-0.8,0.5-2.9,0.3-4.3,0.3c0.2-0.2,0-0.3-0.1-0.5
				c-0.9,0.7-0.5,0.4-1.6,0.8l0.9,0.2c-0.7,0.1-1.3,0.6-2,0.2c0.9,0.6-1.2,0.5-1.7,0.7c-0.7-0.2-1.5,0.2-1.9-0.2l0.1,0l-1.1-0.1
				l0.1-0.6c-0.7-0.2-1.6,0.2-1.4,0.4c-0.8-0.2-0.3-0.2-0.4-0.5c0.4-0.2,1.4-0.7,1.6-0.2c-0.1,0-0.2-0.1-0.3,0
				c2,0.3,0.7-0.7,1.7-0.9c-0.5,0-0.9-0.3-1.5-0.2c-0.3,0-1.3,0.2-1.9,0.5c0.7-0.3,1.1,0,1.7,0.2c-0.5,0-0.6,0.3-1,0.1l0.1-0.1
				l-0.5,0.2c-0.1-0.4-1.5-0.1-0.7-0.6c-0.7,0.1-0.2,0.3-0.9,0.4l1.3,0.1l0,0.4c-0.5,0.3-0.6,0-1.1,0l0,0.4l-0.9-0.4
				c0.1,0.3-0.6,0.2-0.8,0.2c-0.5-0.2-0.2-0.8-1.1-0.5l0.1,0c-0.5,0.1-0.8,0.2-1.5,0.1c0-0.1,0.2-0.1,0.3-0.2
				c-1-0.2-2.6,0.4-3.1-0.2c0.1-0.3,0.5-0.1,0.5-0.5c1.5,0.5,1.1-0.6,2.9-0.3c0.1,0.9,1.5-0.5,1.9,0.3c-0.7-0.1-1.7,0.4-1.5,0.5
				c0.7,0,1.6-0.1,2,0c-0.4-0.3-0.3-0.7,0-1c-1.1,0.2-3-0.3-4.5-0.4l0.2,0.5c-1.3,0.4,0.2-0.5-0.9-0.5l-0.4,0.4l-0.1,0l-0.7,0.5
				c0.5,0,0.3-0.4,0.9-0.2c0.5,0.2,0,0.4-0.2,0.7c-0.4-0.2-1.6,0-0.8-0.4l-1.4,0.5c0-0.2,0.3-0.3,0.4-0.4l-1,0.1l0-0.1
				c-0.8,0.2-1.9,0.2-2.5,0.6c0.9,0.2,0.4,0.3-0.1,0.5c-0.3,0-0.5-0.1-0.8-0.2c0-0.3,0.2-0.7,0.8-0.9c0.3,0.3,1-0.1,1.5-0.1
				c-0.7-0.2-0.9,0.1-1.4,0.1c0.4-0.2-0.7-0.3-0.7-0.5c0.1-0.1,0.3-0.6,1-0.4c1,0,0.1,0.5,0.4,0.4c0.3,0.5,1.4-0.1,2,0.1
				c0.1,0-0.1,0.1-0.2,0.1c0.5,0,1.6,0,1.7-0.4l-1.3,0.2c-0.3-0.1,0.4-0.3,0-0.5c-0.3,0.1-0.7,0.1-1,0l0.1-0.1c-0.8-0.3-2-0.2-3,0
				c-0.2,0.6-0.5,1-0.9,1.6c-0.2-0.1-0.4-0.2-0.6-0.3c0.4-0.2,0.6-0.5,0.3-0.7l-0.2,0.1l-0.5-0.4c-0.2,0.7-1.7,0.3-2.5,0.6
				c0.6-0.3,1-0.9,1.8-0.5l-0.1-0.4c0.6-0.1,1.1,0.3,1.5,0l-0.7,0.1l0-0.2c-0.5,0-1.2,0.3-1.6,0.1c-0.4,0.2-0.8,0.6-1.9,0.5l0-0.1
				c-0.8,0.7-2.1-0.4-2.7-0.1c-0.3,0.7,1.2,0.3,1.6,0.5c-0.5,0.3-1-0.1-0.6,0.3c-1.1,0.3-0.7-0.6-1.6-0.1l0.5,0.2
				c-0.4,0.3-1.1,0.1-1.5,0.4c0,0.2,0.1,0.2,0.3,0.2c-0.2,0.1-0.4,0.2-0.7,0.3c-0.3,0-0.6-0.1-0.9-0.1c-0.1,0-0.1,0-0.1,0
				c0,0,0,0-0.1,0l0.2,0c-0.1,0-0.1,0-0.2,0c-0.4-0.3-0.6-0.9-0.4-1.4l0.2,0.1c0.4-0.1,0-0.2-0.1-0.3c0,0,0,0,0-0.1
				c0.5-0.1,0.7,0.2,1.1,0.2c-0.1-0.1-0.4-0.2-0.3-0.3c0.7,0.3,1.4,0.1,2.1,0.7c-0.4-0.3,0.4-0.7,0.7-0.8l-1.3-0.6
				c-1.7,0.2-2.8-0.1-4.6,0.2l0.1-0.2c-2.9-0.7-2.4,1.1-4.9,1.1c-0.1-0.5-1.1,0.1-1.1-0.5c0.7,0,0.6-0.2,0.4-0.4
				c-0.4,0.2-0.7,0.6-1.6,0.4c0.3-0.3-0.4-0.5,0.4-0.6c-1.1-0.1-1.8-0.1-2.3,0.4c-1.9,0.5-0.6-0.6-2.4-0.3l0.3-0.2l-1.1,0.1l0.4,0.3
				l-1.4,0.3c-0.8,0.3,0.3,0.3,0.2,0.6l0.3-0.4c0.5,0.1,1.3-0.2,1.4,0c-0.9,0.1-0.7,0.4-1,0.5l0.9-0.2l0.3,0.3c0.8,0,1.5,0.1,2-0.3
				c-0.4-0.1-0.6,0.3-0.9,0.1c0.4-0.5,1.5-0.5,2.5-0.7c0,0.1,0.4,0.2,0.2,0.3c0,0-0.2,0-0.3,0c0.1,0.2-0.5,0.4,0.5,0.5
				c-0.3,0.3-1.1,0.9-1,1c-0.6,0.1-1.3,0.1-1.8,0l0-0.1c-0.4,0-1.1,0.2-1.4,0.1c0,0-0.1-0.1-0.1-0.1l0,0c0,0,0,0,0-0.1
				c-0.3,0.1-1.1,0.2-0.3,0.4L92,16.1c-0.4-0.3-0.2-0.9-0.1-1.3l-0.6,0.6L91.3,15c0.1,0,0.1-0.1,0.2-0.1c0,0-0.1,0-0.2,0l0-0.2
				c-0.1,0.1-0.1,0.2-0.2,0.3c-0.1,0-0.2,0-0.3,0c0,0-0.1-0.1-0.1-0.1c0.2-0.3-0.2-0.4-0.7-0.5c0,0,0,0,0,0l0,0c-0.1,0-0.2,0-0.4,0
				l-0.2,0.4c-0.7-0.2-1-0.5-1.9-0.4l-2,1.3c-0.2,0-0.4,0.1-0.6,0.1c0,0-0.1,0-0.1,0l0.1-0.3l-0.2,0.3c-0.4-0.1-0.9,0-0.6-0.4
				c-0.1-0.2,0.2-0.2,0.6-0.2c0.1,0,0,0.1,0,0.1c0.1-0.2,0.2-0.5-0.3-0.7c0.5,0,0.5,0.1,0.9-0.1l-0.5,0c0.7-0.1,1.8-0.6,1.8-0.9
				c-0.2,0.4-0.7,0-1.1-0.1c0.3-0.1,0.9-0.3,0.4-0.4c-0.2,0.2-1.5,0.4-0.6,0.6C85,13.9,84.5,14.1,84,14c0.5-0.2,0.2-0.4,0.3-0.7
				c-0.5,0.3-0.5,0.6-0.5,0.7c-1.3-0.4-1.9-1.1-3.4-0.8c-0.2,0.1,0.9-0.1,0.8,0.2c-1.1,0.5-1.4-0.5-2.4-0.3l0.3,0.5
				c-0.3,0.1-1,0.2-1.4,0.2c-0.1-0.2-1.1-0.5-0.4-0.6c-1.6-0.3-1.5,1-3.4,0.9c0.9,0.1,1,0.1,1.7,0.1c-0.7,0.3-0.1,0.2-0.2,0.6
				c-0.4-0.3-1.9,0-0.9-0.4c-0.6,0-1.8-0.1-2,0.1l0.5,0.2c-0.6,0-1.1,0.1-1.5,0.3c-0.5,0-1.1,0-1.5,0c0,0,0,0,0,0
				c-0.3-0.1-0.5-0.2-0.6-0.3c0-0.4,1.1-0.2,1.8-0.3c-0.5-0.2-0.2-0.3,0.2-0.5c0.1,0,0.1,0,0.1-0.1c0,0,0.1,0,0.1-0.1l-0.1,0
				c0,0,0-0.1-0.1-0.2c-0.7,0.1-1.2-0.2-1.6-0.2c0.4,0.7-1.4,0.2-2,0.4l-0.6,0.1l-0.2,0c0-0.1,0-0.2,0.4-0.3
				c-0.3,0.1-1.3,0.1-1.2,0.3l-2.2,0c-0.1,0-0.1-0.1-0.2-0.1c-0.1,0-0.1,0.1-0.1,0.1l-9.7,0c0.5,0.1,0.9,0.2,1.4,0.3
				c-0.7,0.5,0.8,0.1,0.6,0.5c-0.3,0.2-0.8,0.1-1.1,0c-0.1,0.2,0.3,0.4,0.3,0.7c1.2,0.3,1.4-0.8,2.6-0.6c0,0.3-0.4,0.5,0.4,0.5
				L57.9,15c1.3-0.3,1,0.6,1.8-0.1l0,0.4c0.6-0.3,1.7-0.3,2.3-0.3l0,0.1c1.8-0.4,1-0.1,3-0.3l-0.9,0.4c0.7,0.2,0.8-0.3,1.3-0.2
				c0,0.1,0,0.3-0.2,0.4l2.2-0.6c0.6-0.3-0.1-0.3-0.2-0.4c0.2-0.2,1.2-0.1,1.3,0.1c-0.1,0.1-0.7,0.2-0.3,0.3l0.8-0.6
				c1.1,0.4-0.8,0.8-1.4,1c0.2,0,0.4,0,0.6,0c-1.5,0.3-2.9,0.6-4.7,0.8c-1.2-1.1-2.9-0.2-4.4-0.1c0,0-0.1-0.1-0.1-0.1
				c0,0,0,0.1-0.1,0.1c-0.3,0-0.6-0.1-0.9-0.2l-0.5,0.6h0c-0.8-0.6-1.8-0.3-2.9-0.3c0,0,0,0,0,0c-0.2,0-0.5,0-0.7,0
				c-0.2-0.1-0.5-0.1-0.7-0.3c-0.4,0.2-0.6,0.3-0.7,0.3c0,0,0,0,0.1,0c-0.3,0.1-0.6,0.1-0.9,0.2c-0.2-0.1-0.3-0.2-0.2-0.4l0.1-0.1
				c0.1-0.7-1.3,0.3-1.8-0.3l0.3,0.8l-0.8-0.1l0.2-0.1c-0.2,0.1-0.4,0.2-0.5,0.2c-0.8-0.1-1.5-0.3-1.7-0.1c-0.3,0.2-0.6,0.3-1,0.4
				c-1.7-0.1-3.2-0.8-5.4,0.2c0.4-0.8-0.7,0.4-0.7-0.5c-0.7-0.9-1.3-0.2-1.9,0.3c-0.2,0-0.5,0-0.7,0c0,0-0.1,0-0.1-0.1
				c0,0,0,0,0,0.1c-0.1,0-0.2,0-0.3,0c0,0,0,0.1,0.1,0.1l0,0c0,0,0,0,0,0c0,0,0,0,0,0c0.1,0.1,0.2,0.1,0.3,0.2c0,0,0,0.1-0.1,0.1
				l-0.9-0.1c0,0,0.1-0.1,0.1-0.1c0.2-0.3,0.1-0.2,0-0.1c-0.2,0-0.4,0.1-0.6,0.1c-3.1-0.7-7.1,0.1-10.7-0.3l0.2,0.3
				c-0.9-0.1-2.1,0.3-2.8-0.2c-0.7-0.5-1.6,0.8-1.8,0.8c-0.8,0.5-1.5-0.5-1.2-0.5c-0.5,0.1-1,0.5-1.5,0.7c-0.1,0-0.2-0.1-0.4-0.1
				c-0.3-0.4-2.4-0.4-4.1-0.2l0-0.1c0,0,0,0.1,0,0.1c-0.3,0-0.6,0.1-0.8,0.1c-1.2-0.1-2.4,0.7-3.7,0.1c0,0,0-0.1,0.1-0.2l-1.4,1.5
				c0,0,0,0,0,0l0.1-0.2c-0.2-0.2-0.4,1.8-3-0.6v-0.1c-0.1,0-0.1,0.2-0.3,0l0.5,0.5c-0.3,0.2-0.5,0.6-0.9,0.7C4,18.8,4,18.7,4,18.5
				l-0.9,0.1l-0.3-0.6c-0.3,0.3-0.1,1.5-0.9,0.8c0.3,0.8-0.4,0.5-0.3,0.9c0-0.1-0.1-0.3-0.2-0.4C1,19.5,0.2,19.8,0,20.2
				c0,0,0.5,0.5,1,1.1C0.7,21.4,0.4,21.5,0.3,21.6L0.3,21.6z"/>
		</g>
	</g>
</g>
</svg>
